<?xml version="1.0" encoding="iso-8859-1"?>
<!-- Generator: Adobe Illustrator 19.0.0, SVG Export Plug-In . SVG Version: 6.00 Build 0)  -->
<svg version="1.1" id="Layer_1" xmlns="http://www.w3.org/2000/svg" xmlns:xlink="http://www.w3.org/1999/xlink" x="0px" y="0px"
	 viewBox="0 0 512 512" style="enable-background:new 0 0 512 512;" xml:space="preserve">
<g>
	<g>
		<g>
			<rect x="166.543" y="411.088" width="11.469" height="10.435"/>
			<path d="M165.594,227.472c0-2.47-0.671-4.347-2.012-5.622c-1.352-1.275-3.331-1.917-5.962-1.917h-9.987v15.332h7.291
				c3.873,0,6.628-0.609,8.246-1.812C164.787,232.249,165.594,230.247,165.594,227.472z"/>
			<path d="M236.172,265.261c-0.026,0.014-0.052,0.031-0.079,0.044C236.333,265.18,236.254,265.219,236.172,265.261z"/>
			<rect x="202.629" y="411.088" width="11.466" height="10.435"/>
			<rect x="226.678" y="411.088" width="11.466" height="10.435"/>
			<path d="M124.595,226.11c0.363-0.279,0.543-0.781,0.543-1.498v-2.911c0-0.701-0.179-1.196-0.543-1.48
				c-0.358-0.279-1.024-0.425-2.002-0.425h-12.667v6.735h12.664C123.571,226.535,124.237,226.391,124.595,226.11z"/>
			<rect x="82.353" y="411.088" width="11.471" height="10.435"/>
			<rect x="34.266" y="411.088" width="11.464" height="10.435"/>
			<path d="M346.209,325.74c0,0.01,0,0.021,0,0.031C346.23,325.645,346.312,324.997,346.209,325.74z"/>
			<rect x="58.309" y="411.088" width="11.469" height="10.435"/>
			<rect x="142.495" y="411.088" width="11.469" height="10.435"/>
			<rect x="118.449" y="411.088" width="11.469" height="10.435"/>
			<polygon points="79.803,220.304 74.419,230.152 85.028,230.152 			"/>
			<path d="M256.765,246.369c-0.033,0.003-0.074,0.003-0.177,0.015c0.515-0.046,0.671-0.143,0.653-0.671
				c-0.584,0.346-1.27,0.394-1.805,0.855c0.379-0.102,0.753-0.164,1.144-0.182C256.612,246.382,256.707,246.375,256.765,246.369z"/>
			<path d="M256.535,247.36c0.544,0.063,1.044-0.154,1.549-0.315c0.025-0.008,0.042-0.013,0.031-0.01
				C258.388,246.951,256.983,246.966,256.535,247.36z"/>
			<path d="M254.661,247.854C254.7,247.872,255.401,247.839,254.661,247.854L254.661,247.854z"/>
			<path d="M287.511,244.705c0.44,0.074-0.179-0.248-0.082-0.312c-0.809,0.366-1.997-0.538-2.934-0.266
				c0.954,0.279,1.926,0.397,2.911,0.562C287.474,244.7,287.524,244.708,287.511,244.705z"/>
			<path d="M284.493,244.127c-0.172-0.123-0.261-0.113-0.251,0.028C284.332,244.196,284.413,244.188,284.493,244.127z"/>
			<path d="M254.661,247.854c0.543-0.018,1.464-0.374,1.784-0.832C256.061,246.91,254.38,247.747,254.661,247.854z"/>
			<path d="M256.305,247.483c0.095,0.005,0.205,0.031,0.225-0.115C256.42,247.347,256.34,247.376,256.305,247.483z"/>
			<path d="M252.805,305.777C252.805,305.874,252.818,306.353,252.805,305.777L252.805,305.777z"/>
			<path d="M220.705,319.77c-0.243-0.136,0.177,1.065,0.077,1.139c0.364-0.172,0.177-0.453,0.404-0.704
				C221.199,320.218,220.854,319.847,220.705,319.77z"/>
			<path d="M259.433,379.07C259.628,379.111,259.802,379.146,259.433,379.07L259.433,379.07z"/>
			<path d="M264.84,376.538C264.704,376.392,264.94,376.668,264.84,376.538L264.84,376.538z"/>
			<path d="M268.106,357.013c0.1,0.09,0.527-0.346,0.364-0.461C268.357,356.47,267.991,356.89,268.106,357.013z"/>
			<path d="M264.899,376.167c0.005,0,0.005,0,0.01,0c-0.005,0-0.01,0.008-0.01,0.008v-0.005c-0.187-0.223-0.404-0.289-0.671-0.174
				c-0.2,0.064-0.407,0.684-0.095,0.558c0.176-0.072,0.563-0.412,0.764-0.376c-0.121,0.114-0.159,0.236-0.055,0.361
				c0.177,0.218,1.249-0.346,1.103-0.52C265.725,375.785,265.152,375.934,264.899,376.167z"/>
			<path d="M254.408,247.209C253.76,247.109,254.612,247.248,254.408,247.209L254.408,247.209z"/>
			<path d="M304.269,259.738c0.445-0.056,1.457-0.013,1.797-0.32c0.407-0.364-0.302-0.343-0.384-0.484
				c-0.23-0.387-0.033-0.847-0.579-1.052c-1.009-0.381-0.353,0.256-1.298-0.489c-0.66-0.515-2.46-1.751-3.3-1.723
				c-0.512,0.013-0.402-0.724-0.627-1.029c-0.243-0.32-0.822-0.095-1.152-0.108c0.509,0.015-1.472-1.144-1.167-0.468
				c0.161,0.346-0.274,0.814,0.343,0.911c0.013,0,0.863,0.852,0.868,0.881c0.077,0.246,4.534,1.71,2.604,1.859
				c0.164,0.223,0.371,0.379,0.617,0.484c0.335,0.256-0.289,0.643-0.113,0.747c0.786,0.489,1.27-0.131,0.86,1.203
				C302.628,260.496,304.102,259.705,304.269,259.738C303.974,259.682,304.758,259.674,304.269,259.738z"/>
			<path d="M299.727,256.835c-0.161-0.435-0.727-0.515-1.121-0.507c-1.111,0.013-0.44,0.225-0.509,0.745
				c-0.026,0.169-0.586-0.008-0.694,0.09c0.056-0.056,1.505,2.145,1.887,2.133c2.276-0.215,0.881-1.357,0.458-2.422
				C299.796,257.009,299.835,257.132,299.727,256.835z"/>
			<path d="M380.659,224.963c0-19.546-15.99-35.528-35.533-35.528H35.528C15.987,189.435,0,205.417,0,224.963v182.72
				c0,19.54,15.987,35.528,35.528,35.528h309.599c19.543,0,35.533-15.987,35.533-35.528V224.963z M347.546,314.609
				c-0.013,0.084,0.166,0.097,0.105-0.1c0.274,0.899,0.115,1.411,0.051,2.378c0.018-0.294-0.02,1.989-0.645,1.188
				C346.657,317.558,346.949,315.172,347.546,314.609z M347.19,327.824c0.03-0.264,0.053-0.475,0.064-0.603
				C347.237,327.554,347.208,327.736,347.19,327.824c-0.172,1.574-0.612,5.059-0.714,5.033c-0.146-0.031,0.366-4.122,0.676-5.402
				C347.108,327.755,347.144,328.008,347.19,327.824z M338.76,280.768c3.484,5.128,6.259,10.358,8.036,16.307
				c-0.294-0.591-0.655-1.155-0.893-1.774c0-0.018,0-0.013-0.01-0.044c0,0,0,0.005,0,0.01c-0.008-0.013-0.013-0.036-0.021-0.051
				c-1.019-2.854-2.424-5.752-3.917-8.392c-0.835-1.477-1.751-2.906-2.652-4.347c-0.3-0.489-0.896-1.137-1.044-1.702
				C338.112,280.266,338.691,280.656,338.76,280.768z M346.204,319.473c0.015,0.637,0.381,6.528,0.161,6.569
				c-0.125-0.036-0.169-0.131-0.161-0.264c0.005-0.018,0.005-0.026,0.005-0.038C346.465,323.674,345.782,321.593,346.204,319.473z
				 M345.93,326.06c0.008,0.269-0.548,0.993-0.684,1.121c-0.077-0.689,0.192-0.975,0.691-1.155
				C345.951,326.134,345.93,326.09,345.93,326.06z M321.219,258.55c0.548,0.422,1.08,0.855,1.615,1.295
				c-0.712-0.586-1.444-1.142-2.176-1.695C320.842,258.291,321.034,258.414,321.219,258.55z M312.271,252.598
				c0.293,0.165,0.579,0.342,0.869,0.511c-0.318-0.185-0.63-0.377-0.951-0.557c-0.745-0.423-1.501-0.829-2.263-1.222
				c0.762,0.395,1.517,0.801,2.263,1.222C312.215,252.565,312.243,252.583,312.271,252.598z M245.481,249.752
				c-0.244,0.127-0.482,0.263-0.714,0.412c0.225,0.346,0.474-0.038,0.753,0.056c-0.635,0.589-1.533,0.75-2.312,1.029
				c0.389-0.184,0.904-0.484,1.155-0.855c-0.42,0.141-0.84,0.315-1.254,0.479C243.89,250.484,244.685,250.118,245.481,249.752z
				 M242.276,268.281c0.007-0.006,0.011-0.009,0.017-0.014c0.606-0.456,3.699-0.787,2.407,0.009
				C244.275,268.537,241.792,268.685,242.276,268.281z M242.368,268.974c0.133,0.881-4.201,1.439-3.684,0.901
				C238.909,269.635,242.307,268.593,242.368,268.974z M241.331,252.977c0.21,0.407-1.521,0.991-1.756,0.934
				C239.713,253.742,241.247,252.805,241.331,252.977z M238.17,255.486c0.55-0.274,1.6-0.85,1.649-0.558
				C239.844,255.086,238.728,255.322,238.17,255.486c-0.154,0.084-0.274,0.138-0.325,0.141
				C237.824,255.593,237.96,255.552,238.17,255.486z M236.565,260.224c-0.282,0.21-0.036-1.38,0.545-0.87
				c0.23,0.2,1.162-0.21,1.126-0.046c-0.1,0.3-1.577,2.668-2.012,2.634C236.575,261.758,237.614,259.436,236.565,260.224z
				 M239.877,263.365c0.341,0.233,0.942-0.156,0.63,0.591c-0.125,0.287,0.346,0.164,0.402,0.192c0.896,0.44-1.877,2.227-2.209,1.329
				c-0.233-0.648-0.671-0.581-1.167-0.294c-0.515,0.294-0.978-0.115-1.439,0.123c-0.024,0.01,0.028-0.018,0.079-0.044
				C237.347,264.647,238.522,263.734,239.877,263.365z M237.041,267.674c0.614-1.101,1.221-1.472,2.488-1.677
				c0.696-0.115,2.883-0.676,3.187,0.338c0.292,0.97-0.453,1.137-0.942,0.417c-0.069,0.256-1.464,2.304-1.756,1.951
				c-0.072-0.097,0.435-0.978,0.003-0.855c-0.123,0.031-0.576,0.471-0.691,0.274c0.041,0.059,2.184-2.939-0.092-1.459
				c-0.76,0.502-1.654,0.945-1.892,1.933c-0.077,0.33-1.126,1.964-1.628,1.544c0.067,0.056,0.038,0.031-0.003,0c0-0.005,0,0,0-0.005
				C235.19,269.658,236.833,268.048,237.041,267.674z M142.001,215.609h15.575c4.444,0,7.859,1.037,10.255,3.118
				c2.388,2.071,3.581,5.02,3.581,8.84c0,2.258-0.466,4.293-1.403,6.103c-0.927,1.81-2.237,3.233-3.932,4.273
				c-1.055,0.658-2.368,1.134-3.935,1.431c-1.567,0.299-3.571,0.448-6.008,0.448h-14.134V215.609z M146.808,302.925
				c-4.198,0-7.616,3.418-7.616,7.611v11.566c0,1.956,0.773,3.725,1.987,5.071c-1.213,1.349-1.987,3.123-1.987,5.074v11.564
				c0,0.896,0.184,1.741,0.474,2.542H87.002c0.284-0.801,0.466-1.643,0.466-2.542v-11.564c0-1.948-0.76-3.725-1.974-5.074
				c1.213-1.347,1.974-3.113,1.974-5.071v-11.566c0-1.951-0.76-3.72-1.974-5.071c1.213-1.349,1.974-3.116,1.974-5.074V288.83
				c0-0.893-0.182-1.736-0.466-2.534h84.385v16.63H146.808z M146.808,324.639c-1.398,0-2.537-1.137-2.537-2.534v-11.566
				c0-1.398,1.139-2.532,2.537-2.532h24.579v16.632H146.808z M146.808,346.355c-1.398,0-2.537-1.144-2.537-2.542V332.25
				c0-1.398,1.139-2.532,2.537-2.532h24.579v16.637H146.808z M171.182,351.427c-1.247,8.568-8.653,15.224-17.559,15.224H48.727
				c-8.909,0-16.315-6.653-17.557-15.224h48.686h66.952H171.182z M79.857,281.221H31.171c1.239-8.576,8.648-15.232,17.557-15.232
				h104.896c8.906,0,16.312,6.653,17.559,15.232H79.857z M104.376,215.603h20.716c1.925,0,3.318,0.371,4.173,1.111
				c0.868,0.74,1.3,1.938,1.3,3.587v5.683c0,1.633-0.433,2.824-1.3,3.571c-0.855,0.748-2.248,1.126-4.173,1.126h-3.162l11.177,9.137
				h-8.084l-9.759-9.137h-5.338v9.139h-5.55V215.603z M77.284,215.609h5.427l13.883,24.212h-6.326l-2.906-5.292H72.015l-2.819,5.292
				h-5.612L77.284,215.609z M30.961,221.333c0-2.197,0.415-3.702,1.237-4.511c0.822-0.809,2.414-1.213,4.767-1.213H51.42
				c2.33,0,3.917,0.404,4.749,1.213c0.832,0.812,1.249,2.317,1.249,4.511v2.291l-5.637,0.896v-4.585H36.595v15.329h15.186v-5.204
				l5.637,1.172v2.862c0,2.212-0.415,3.722-1.249,4.524c-0.829,0.801-2.417,1.201-4.749,1.201H36.964
				c-2.353,0-3.945-0.399-4.767-1.201c-0.822-0.801-1.237-2.312-1.237-4.524V221.333z M30.961,286.295h48.896
				c1.398,0,2.537,1.137,2.537,2.534v11.561c0,1.398-1.139,2.537-2.537,2.537H30.961V286.295z M30.961,308.007h48.896
				c1.398,0,2.537,1.134,2.537,2.532v11.566c0,1.398-1.139,2.534-2.537,2.534H30.961V308.007z M30.961,329.718h48.896
				c1.398,0,2.537,1.134,2.537,2.532v11.564c0,1.398-1.139,2.542-2.537,2.542H30.961V329.718z M48.338,423.614
				c-0.507,0.532-1.48,0.794-2.911,0.794H34.57c-1.418,0-2.386-0.261-2.895-0.794c-0.512-0.535-0.768-1.531-0.768-3.003v-8.463
				c0-1.464,0.253-2.468,0.768-2.998c0.509-0.532,1.477-0.799,2.895-0.799h10.857c1.431,0,2.404,0.269,2.911,0.799
				c0.515,0.53,0.765,1.533,0.765,2.998c0,0,0,8.463,0,8.463C49.103,422.083,48.852,423.079,48.338,423.614z M73.149,420.611
				c0,1.472-0.251,2.468-0.765,3.003c-0.509,0.532-1.48,0.794-2.911,0.794H58.616c-1.418,0-2.381-0.261-2.898-0.794
				c-0.509-0.535-0.765-1.531-0.765-3.003v-8.463c0-1.464,0.256-2.468,0.765-2.998c0.517-0.532,1.48-0.799,2.898-0.799h10.857
				c1.428,0,2.401,0.269,2.911,0.799c0.515,0.53,0.765,1.533,0.765,2.998V420.611z M97.195,420.611c0,1.472-0.253,2.468-0.768,3.003
				c-0.507,0.532-1.48,0.794-2.908,0.794H82.665c-1.418,0-2.394-0.261-2.898-0.794c-0.509-0.535-0.765-1.531-0.765-3.003v-8.463
				c0-1.464,0.256-2.468,0.765-2.998c0.504-0.532,1.48-0.799,2.898-0.799h10.854c1.428,0,2.404,0.269,2.908,0.799
				c0.512,0.53,0.768,1.533,0.768,2.998V420.611z M133.292,420.611c0,1.472-0.264,2.468-0.768,3.003
				c-0.515,0.532-1.482,0.794-2.908,0.794h-10.865c-1.418,0-2.381-0.261-2.89-0.794c-0.515-0.535-0.773-1.531-0.773-3.003v-8.463
				c0-1.464,0.259-2.468,0.773-2.998c0.509-0.532,1.472-0.799,2.89-0.799h10.865c1.426,0,2.394,0.269,2.908,0.799
				c0.504,0.53,0.768,1.533,0.768,2.998V420.611z M157.335,420.611c0,1.472-0.256,2.468-0.765,3.003
				c-0.512,0.532-1.48,0.794-2.906,0.794h-10.87c-1.413,0-2.381-0.261-2.89-0.794c-0.509-0.535-0.771-1.531-0.771-3.003v-8.463
				c0-1.464,0.261-2.468,0.771-2.998c0.509-0.532,1.477-0.799,2.89-0.799h10.87c1.426,0,2.391,0.269,2.906,0.799
				c0.509,0.53,0.765,1.533,0.765,2.998V420.611z M181.384,420.611c0,1.472-0.256,2.468-0.773,3.003
				c-0.507,0.532-1.482,0.794-2.9,0.794h-10.867c-1.416,0-2.381-0.261-2.895-0.794c-0.515-0.535-0.765-1.531-0.765-3.003v-8.463
				c0-1.464,0.251-2.465,0.765-2.998c0.515-0.532,1.48-0.799,2.895-0.799h10.867c1.418,0,2.394,0.269,2.9,0.799
				c0.517,0.53,0.773,1.533,0.773,2.998V420.611z M217.469,420.611c0,1.472-0.251,2.468-0.765,3.003
				c-0.509,0.532-1.482,0.794-2.911,0.794h-10.857c-1.418,0-2.381-0.261-2.895-0.794c-0.507-0.535-0.763-1.531-0.763-3.003v-8.463
				c0-1.464,0.253-2.468,0.763-2.998c0.515-0.532,1.477-0.799,2.895-0.799h10.857c1.426,0,2.401,0.269,2.911,0.799
				c0.515,0.53,0.765,1.533,0.765,2.998V420.611z M241.518,420.611c0,1.472-0.251,2.468-0.765,3.003
				c-0.509,0.532-1.48,0.794-2.911,0.794h-10.857c-1.418,0-2.388-0.261-2.895-0.794c-0.512-0.535-0.768-1.531-0.768-3.003v-8.463
				c0-1.464,0.253-2.468,0.768-2.998c0.507-0.532,1.477-0.799,2.895-0.799h10.857c1.431,0,2.401,0.269,2.911,0.799
				c0.515,0.53,0.765,1.533,0.765,2.998V420.611z M265.564,420.611c0,1.472-0.256,2.468-0.765,3.003
				c-0.507,0.532-1.485,0.794-2.913,0.794h-10.865c-1.416,0-2.376-0.261-2.885-0.794c-0.512-0.535-0.768-1.531-0.768-3.003v-8.463
				c0-1.464,0.253-2.468,0.768-2.998c0.509-0.532,1.467-0.799,2.885-0.799h10.865c1.428,0,2.409,0.269,2.913,0.799
				c0.509,0.53,0.765,1.533,0.765,2.998V420.611z M301.655,420.611c0,1.472-0.256,2.468-0.765,3.003
				c-0.512,0.532-1.48,0.794-2.916,0.794h-10.854c-1.421,0-2.381-0.261-2.888-0.794c-0.517-0.535-0.778-1.531-0.778-3.003v-8.463
				c0-1.464,0.261-2.468,0.778-2.998c0.507-0.532,1.467-0.799,2.888-0.799h10.854c1.436,0,2.406,0.269,2.916,0.799
				s0.765,1.533,0.765,2.998V420.611z M325.706,420.611c0,1.472-0.261,2.468-0.771,3.003c-0.512,0.532-1.48,0.794-2.911,0.794
				h-10.86c-1.423,0-2.381-0.261-2.89-0.794c-0.515-0.535-0.776-1.531-0.776-3.003v-8.463c0-1.464,0.261-2.468,0.776-2.998
				c0.509-0.532,1.467-0.799,2.89-0.799h10.86c1.431,0,2.399,0.269,2.911,0.799c0.509,0.53,0.771,1.533,0.771,2.998V420.611z
				 M349.747,420.611c0,1.472-0.256,2.468-0.765,3.003c-0.509,0.532-1.485,0.794-2.908,0.794h-10.865
				c-1.418,0-2.378-0.261-2.89-0.794c-0.515-0.535-0.771-1.531-0.771-3.003v-8.463c0-1.464,0.256-2.468,0.771-2.998
				c0.512-0.532,1.472-0.799,2.89-0.799h10.865c1.423,0,2.399,0.269,2.908,0.799s0.765,1.533,0.765,2.998V420.611z M298.12,387.147
				c1.782-0.566,3.546-1.201,5.281-1.9c-0.136-0.212-0.358-0.205-0.678,0.031c0.212-0.056-0.712,0.21,0,0
				c-1.331,0.399-2.908,0.307-4.311,0.469c-0.681,0.069-1.352,0.092-2.033,0.12c-0.481,0.015-0.264-0.568-0.76-0.264
				c-1.359,0.827-3.141,0.64-4.667,0.991c-1.766,0.399-3.5,0.745-5.23,1.254c-3.628,1.098-7.027,1.636-10.803,1.172
				c-0.794-0.102-1.58-0.22-2.368-0.338c-0.522-0.079-0.568-0.681-0.975-0.957c-0.497-0.358-1.07-0.658-1.48-1.132
				c-0.113-0.131-1.3-1.603-1.3-1.646c-0.026-0.417,0.637-0.845,1.027-0.686c-0.223-0.087,1.024-0.561,1.139-0.625
				c-1.167-0.223-2.58,1.068-3.505,0.812c-0.055,0.022-0.063,0.054-0.076,0.068c0.041-0.003,0.082-0.006,0.086-0.042
				c0.008,0-0.018,0.031-0.061,0.069c-0.006,0.016-0.022,0.005-0.042-0.01c-0.319,0.317-1.494,1.426-1.484,1.234
				c-0.008,0.159,0.686,0.21,0.686,0.21c0.835,0.371,0.438,0.292,0.527,0.865c-0.069-0.476-2.45-0.128-2.437,0.138
				c0.008,0.223,2.122,0.689,2.604,0.975c-0.438-0.128-2.255,0.392-2.268,0.387c-1.935-0.338-4.25-0.655-6.208-0.555
				c0.371,0.248,2.732,0.822,2.706,0.945c-0.044,0.21-2.578-0.328-2.865-0.325c1.769,0.44,3.548,0.817,5.35,1.116
				c-34.204-5.642-60.695-34.895-61.619-70.835c-0.625-24.21,10.527-45.967,28.229-59.868c0.082-0.069,0.164-0.154,0.251-0.218
				c0.23-0.189,0.476-0.379,0.719-0.568c-0.333,0.256-0.643,0.527-0.97,0.786c-3.338,2.703-6.323,6.116-9.157,9.329
				c-1.674,1.894-3.164,3.86-4.408,6.06c-0.486,0.878-1.574,2.025-1.567,3.072c0.013,1.216-0.584,2.281-0.983,3.397
				c-0.34,0.952-0.847,1.876-0.835,2.906c0,0.893-0.952,1.347-0.87,2.153c0.113,1.16-0.213,1.774-0.292,2.895
				c-0.005,0.102,0.102,2.086,0.095,2.086c0.312,0.041,1.085-5.512,1.219-6.131c0.253-1.193,0.44-2.596,1.08-3.656
				c0.389-0.63,0.586,0.056,0.389,0.492c-0.561,1.244-0.876,2.598-0.881,3.965c-0.005,0.681-0.461,1.874-0.238,2.442
				c0.402,1.042,0.299,2.499,0.279,3.61c-0.015,1.119-0.584,1.933-0.748,2.985c-0.264,1.833,2.117,3.651,3.282,4.675
				c1.692,1.485,2.714-0.968,3.848,1.492c0.34,0.735,2.918,3.144,3.848,2.266c0.028-0.028,0.865,2.179,1.464,2.414
				c0-0.001,0.002,0.002,0.003,0.002c-0.013,0.824-0.199,1.548,0.453,2.098c0.284,0.241,0.146-0.417,0.161-0.43
				c0.42-0.356,1.203,1.94,1.188,1.935c0.512,0.417,1.933,0.458,2.483,1.07c1.206,1.336,0.42-1.06,1.641-1.723
				c1.098-0.591,3.471,6.917,1.316,8.146c-0.794,0.451-0.612,0.963-0.924,1.741c-0.125,0.312-0.663,0.364-0.906,0.543
				c-0.389,0.294-0.097,0.62-0.22,0.993c-0.195,0.52-0.507,0.983-0.63,1.526c-0.041,0.169,0.143,0.978,0.054,1.183
				c-0.399,0.858,1.185,0.858,0.922,1.426c-0.561,1.17-1.405,1.085-1.057,2.57c-0.01-0.036,0.42,1.413,0.248,1.283
				c1.789,1.434,2.639,3.29,3.758,5.304c0.663,1.201,1.516,2.248,2.222,3.4c0.292,0.466,0.059,0.978,0.387,1.382
				c0.428,0.517,0.906,0.991,1.428,1.398c1.162,0.886,2.588,1.306,3.807,2.092c0.366,0.235,1.841,1.236,1.94,1.59
				c0.602,2.097,0.896,4.221,1.201,6.203c0.21,1.357,0.54,2.673,0.609,4.045c0.054,0.981-0.177,2.033,0.443,2.888
				c0.197,0.259-0.177,0.84,0.026,1.242c0.289,0.543,0.594,1.029,0.773,1.628c0.338,1.198,0.228,2.427,0.207,3.653
				c-0.026,1.347-0.141,1.446,0.55,2.665c0.443,0.786,0.261,1.272,0.599,2.074c0.279,0.671,0.653,1.257,0.707,2.022
				c0.018,0.548,0.614,0.187,0.43-0.548c-0.602-2.381,1.357,1.859,0.876,1.771c-0.125-0.018-0.433-0.74-0.671-0.412
				c-0.289,0.42,0.369,1.554,0.312,2.189c-0.069,0.671,1.354-0.133,1.152,0.832c-0.148,0.661-0.596,0.361-0.09,1.116
				c1.82,2.739,4.723,4.193,7.857,4.869c0.009,0,0.01,0,0.013,0c0.003,0,0.004,0,0.005,0c0.001,0,0.003,0,0.003,0
				c0.013,0.003,0.013,0.003,0.031,0.008c-0.01,0-0.018-0.005-0.02-0.008c0.01,0.003,0.02,0.003,0.023,0.008
				c0.33,0.056,2.225-0.548,2.222-0.561c-0.161-0.187-1.085-0.2-1.349-0.292c-0.553-0.195-1.101-0.499-1.554-0.888
				c-0.207-0.174-1.772-1.633-1.595-1.864c0.481-0.617,0.376-1.219,0.963-1.731c0.875-0.765-0.256-0.937-0.801-1.165
				c-0.983-0.422-1.393-1.126-0.32-1.702c1.003-0.535-0.172-1.001,0.399-1.564c0.292-0.292-1.139-2.268-0.922-2.332
				c0.074-0.031,2.895,0.704,2.46-0.179c-0.271-0.54-0.463-1.103-0.591-1.695c2.266-0.264,3.72,0.095,4.892-2.143
				c0.246-0.468-0.609-0.548-0.791-0.727c-0.077-0.279-0.092-0.566-0.084-0.847c-0.253-0.353-1.81-0.54-1.446-1.142
				c0.041-0.056,3.566,0.822,4.288,0.44c0.266-0.136,1.615-1.6,1.234-1.871c-0.407-0.287-0.427,0.591-0.612,0.535
				c-0.814-0.228,1.265-1.357,1.206-1.237c0.026-0.256,0.028-0.515,0.015-0.765c0.177-0.195,0.364-0.392,0.543-0.581
				c0.056-0.107,0.676-1.441,0.993-0.855c0.095,0.166-0.223,0.412-0.008,0.556c-0.356-0.213,1.718-2.619,1.8-2.831
				c0.448-1.18-0.54-2.345,0.466-3.418c1.114-1.175,2.317-1.682,3.489-2.319c1.088-0.581,2.094-0.543,3.356-0.694
				c0.182-0.015,0.497-0.747,0.873-0.881c0.645-0.23,0.299-1.175,0.827-1.654c1.052-0.945,0.556-2.138,1.142-3.085
				c0.497-0.812,1.044-2.171,0.827-3.185c-0.061-0.284-0.033-3.965,0.348-3.704c0.763,0.535,1.016-0.865,1.452-1.503
				c0.722-1.065,1.756-1.877,2.493-2.924c0.678-0.97,1.206-5.778-0.814-5.345c-2.499,0.538-3.914-3.415-6.282-2.593
				c-0.842,0.292-2.148-0.335-2.982-0.443c-0.829-0.108-1.341,0.466-1.928,0.929c0.691-2.271-1.664-2.481-3.405-3.011
				c-0.873-0.271-1.07,0.015-1.385,0.763c-0.276,0.66-1.108,0.73-1.398,1.498c0.2-1.283-0.65-0.2-1.272-0.599
				c0.594-0.804,2.534-0.097,2.486-1.912c-0.031-1.021-2.847,0.102-2.985,0.069c0.259-0.683-0.699-0.064,0.013-0.952
				c0.218-0.276,0.809-0.591,0.945-0.909c0.448-1.132-0.604-0.804-0.934-1.518c-0.512-1.18-0.596-2.125-1.636-2.957
				c-1.006-0.783-1.751-1.398-3.052-1.654c-0.822-0.166-2.957,0.435-3.556-0.128c-0.407-0.399-0.806-0.847-1.382-1.016
				c-0.351-0.105-0.387-0.876-0.704-1.142c-0.673-0.573-2.294-0.904-2.309-1.669c-0.008-0.591-1.505-0.919-1.37-1.124
				c-0.691,0.358-1.203-0.509-0.279-0.806c-1.354-0.038-1.938,0.371-3.139,0.796c-0.543,0.192-1.057-0.084-1.423-0.463
				c-0.292-0.292-0.986-0.074-1.257-0.041c-1.756,0.236-0.732-0.745-2.109-1.098c-0.614-0.166-2.537,0.184-2.775,0.937
				c0.049-0.179,0.666,3.187-0.346,2.112c-0.829-0.886,0.581-1.562,0.12-2.309c-0.658-1.083,1.073-1.044,0.658-1.702
				c-0.422-0.66-1.505,0.753-1.864,0.906c-0.765,0.328-1.971,0.466-2.555,0.945c-0.451,0.371-0.435,0.924-0.55,1.441
				c-0.123,0.558-0.003,0.059-0.53,0.479c-0.745,0.602-0.978,1.723-1.81,0.509c-0.417-0.617-1.549-0.868-2.171-0.394
				c-1.664,1.239-3.589-0.338-3.581-2.345c0.015-1.482,1.695-4.36,0.522-5.174c-0.54-0.374-0.013-0.584-0.893-0.74
				c-0.684-0.113-1.247,0.223-1.912,0.156c-0.404-0.041-1.981,0.264-1.298-0.563c0.704-0.865,0.369-2.153,0.955-2.934
				c0.102-0.146,0.259,0.287,0.412-0.046c0.154-0.297,0.256-0.609,0.317-0.934c0.115-0.614,1.377-1.876,1.144-2.399
				c-0.269-0.632-2.365-0.013-2.752,0.256c-0.804,0.553-0.783,2.012-1.549,2.742c-0.604,0.581-0.645,0.241-1.492,0.53
				c-2.506,0.873-2.637-2.429-2.419-4.383c0.23-2.04,1.554-3.766,2.138-5.632c0.433-1.349,1.267-1.656,2.299-2.409
				c0.612-0.448,0.868-0.968,1.725-1.044c0.433-0.038,0.637,0.479,1.062,0.051c0.251-0.271,0.451,0.543,0.484,0.571
				c0.195,0.166,1.334-0.11,1.354-0.069c-0.067-0.097-0.195-1.183-0.223-1.144c0.141-0.202,2.849-0.302,3.195-0.1
				c0.571,0.33,0.3,0.899,1.091,0.492c0.305-0.156,0.527-0.323,0.745,0.079c0.371,0.678-0.353,5.704,1.065,5.371
				c1.421-0.32,0.929-3.735,0.937-4.631c0.026-1.523,0.271-2.575,1.533-3.563c0.806-0.625,1.687-1.226,2.542-1.792
				c0.261-0.166,1.892-0.847,1.979-1.06c0.051-0.133-0.125-0.128-0.195-0.159c-0.008,0,0.722-0.53,0.906-0.589
				c0.576-0.202-0.463-0.52-0.381-0.407c-0.084-0.113,0.62-0.353,0.707-0.507c0.279-0.494-0.148-0.328-0.271-0.673
				c-0.11-0.335,0.612-0.348,0.177-0.765c0.046-0.059,0.069-0.033,0.067,0.056c0.069,0.09,0.159,0.026,0.266-0.182
				c-0.128-0.197-0.274-0.358-0.456-0.499c0.184-0.197,0.346,0.325,0.596-0.172c0.225-0.458,0.297-0.684,0.745-0.968
				c-1.016,0.753-0.051,2.601,0.43,0.284c-0.097,0.474,1.49-1.021,1.559-1.101c0.282-0.325,1.411-0.448,1.477-0.73
				c-0.102-0.005-0.535,0.046-0.622-0.061c0.765-0.453,2.061-0.141,2.719-0.732c0.131-0.12-0.067-0.786,0.131-1.07
				c0.223-0.297,0.486-0.563,0.786-0.781c1.533-1.027,3.681-1.513,5.404-2.13c-0.543,0.192,0.799,0.358,0.645,0.338
				c-0.835,0.307-1.554,0.328-2.271,0.952c-0.417,0.369-0.005,1.057,0.479,0.661c1.39-1.16,3.364-1.234,4.877-2.222
				c0.302-0.192,0.23-1.111-0.138-0.875c-0.241,0.151-0.932,1.16-1.124,1.129c-0.722-0.097-1.805,0.151-2.253-0.64
				c-0.131-0.23,0.187-1.211,0.154-1.226c-0.174-0.1-0.62-0.036-0.899-0.197c0.228-0.259,1.869,0.105,1.782-0.717
				c-0.079-0.704-1.487-0.248-1.797-0.172c-0.814,0.207-1.615,0.476-2.347,0.914c-0.481,0.3-1.034,0.937-1.626,0.978
				c1.193-1.029,2.473-1.603,3.804-2.394c1.531-0.896,3.154-0.576,4.89-0.599c1.318-0.018,3.187-1.078,4.431-1.587
				c1.293-0.527-0.448-1.736-0.991-1.825c0.059-0.156,0.474-0.018,0.445-0.248c-0.064-0.404-1.874-0.305-2.045-1.226
				c-0.095-0.448-0.394-2.821-0.842-2.862c-0.875-0.074-1.805,2.181-2.895,1.234c-0.873-0.763,0.243-0.704,0.248-1.495
				c0,0.223-0.955-0.699-1.001-0.768c-0.246-0.397-0.814-0.077-1.147-0.11c-1.813-0.177-1.528,0.724-2.808,1.764
				c-0.358,0.289-1.513,0.481-0.801,1.103c0.256,0.225-0.292,0.965-0.415,1.114c-0.384,0.486-2.911,1.298-2.949,1.572
				c-0.169,1.357-1.137,2.097-2.176,2.726c-0.581,0.353-0.21-1.715-0.054-1.938c0.466-0.673,1.308-1.283,0-1.303
				c-0.952-0.005-0.952-0.901-1.603-1.308c-0.53-0.325-0.663,0.09-1.091-0.079c0.087-0.128,0.814-1.71,0.481-1.464
				c0.676-0.499,1.39-0.97,2.13-1.375c0.579-0.312,5.473-2.708,5.773-2.309c0.241,0.338-0.699,0.445-0.76,0.658
				c-0.018,0.008,0.673,0.123,0.852,0.09c0.474-0.105,0.842-0.543,1.29-0.041c0.481,0.53,0.522-0.476,0.392-0.707
				c-0.387-0.645,0.067-1.267,0.182-0.863c0.077,0.269,1.838-0.417,2.117-0.637c0.776-0.617,3.773-2.796,3.901-0.381
				c0.044,1.219-4.454,1.513-4.319,1.987c0.143,0.522,1.946-0.497,2.273,0.786c0.072,0.282,2.104,1.011,2.314,0.622
				c0.12-0.218-0.561-0.556-0.397-0.732c0.384-0.417,1.016,0.878,1.626-0.015c0.584-0.842-0.502-0.868-0.195-1.513
				c0.428-0.886,0.868,0.218,1.206,0.389c0.394,0.197,1.743-0.666,1.981-0.97c-0.515-0.369-1.385-0.392-1.848-0.794
				c-0.394-0.346,0.563-0.504,0.614-0.809c0.041-0.271-0.73-0.543-0.835-0.617c-0.445,0.015-0.625-0.177-0.566-0.581
				c-0.136-0.238-1.521,0.184-1.705,0.174c0.097-0.064,0.486-0.236,0.422-0.425c-0.213-0.617-2.22,0.625-2.519,0.806
				c0.061-0.179,0.988-0.75,0.965-0.791c-0.136-0.392-2.888,0.978-2.76,1.242c0.32,0.635,0.028,0.732-0.852,1.083
				c-0.131,0.054-1.398,0.753-1.492,0.556c-0.23-0.428,1.024-0.412,0.876-0.806c-0.079-0.215-0.717,0.172-0.852,0.197
				c0.456-0.248,1.464-1.057,1.69-1.533c-1.044-0.143-3.123,2.307-3.758,1.83c-0.205-0.156,0.289-0.282,0.079-0.404
				c-0.1-0.059-1.539,0.535-1.864,0.509c-0.632-0.049,0.082-0.737,0.474-0.632c0.781,0.189,3.31-1.144,3.689-1.859
				c-0.218-0.02-0.645,0.312-0.786-0.015c-0.082-0.197,0.571-0.381,0.658-0.535c-1.531,0.036-2.455,1.052-3.73,1.628
				c-0.555,0.246-0.988,0.212-1.436,0.686c-0.253,0.251,0.169,0.174,0.141,0.435c-0.049,0.34-1.469,0.489-1.539,0.218
				c-0.118-0.422,1.234-0.338,0.351-0.95c-0.509,0.195-1.039,0.392-1.546,0.609c8.558-3.784,17.974-5.998,27.896-6.262
				c12.731-0.328,24.775,2.611,35.362,8.026c-0.695-0.353-1.394-0.699-2.103-1.03c-0.663-0.307-2.975-0.878-3.366-1.441
				c0.031,0.289,1.144,0.735,1.39,0.947c-0.97-0.238-1.869-0.686-2.796-1.037c-0.243-0.09-0.1-0.402-0.346-0.494
				c-1.449-0.55-3.016-0.755-4.513-1.126c-1.288-0.32-1.92,0.102-0.768,0.97c0.589,0.453,2.596,1.674,2.504,2.542
				c-0.156,1.441,0.998,1.836,2.117,2.452c0.789,0.435,2.194,1.743,2.365,0.366c0.084-0.658,4.434,2.534,4.731,2.23
				c0.625-0.63-2.284-3.172-2.985-3.336c-0.527-0.123-4.628-2.747-4.401-3.159c0.187-0.343,4.708,2.662,5.212,2.982
				c0.474,0.31,1.828,0.12,2.04-0.169c-0.351-0.12-0.804-0.381-1.06-0.648c0.497-0.136,1.754,0.461,1.562,1.052
				c-0.146,0.458-0.394-0.005-0.561,0.381c-0.041,0.087,1.198,1.418,1.344,1.567c0.773,0.781,1.487,1.085,2.068,1.976
				c-0.755,0.3-0.65-0.532-1.288,0.374c-0.415,0.589-1.101-0.732-1.585,0.141c-0.412,0.758-3.256-2.639-3.635-2.314
				c-0.707,0.596,2.719,2.097,2.56,2.606c-0.11,0.335-1.139-0.036-1.011,0.737c-0.21,0.115,0.358,0.978,0.141,1.308
				c-0.668,0.983-0.141,0-0.159,0.937c-0.038,1.257-1.316,0.358-1.48,0.632c-0.136,0.233,0.765,0.428,0.55,0.753
				c-0.292,0.433-1.672-0.415-1.805,0.253c-0.072,0.294,2.532,1.129,2.829,1.344c0.868,0.648,2.522,1.649,2.378,3.005
				c-0.072,0.722-6.643-0.747-4.961,1.121c0.965,1.083,1.091,2.209,1.344,3.546c0.013,0.059,1.556,1.902,1.59,1.899
				c0.486-0.031,1.318-0.269,1.723-0.02c0.312,0.192,0.622,0.804,1.016,0.855c0.486,0.049,1.37-0.655,1.974-0.712
				c0.44-0.044,0.896,0.005,0.819-0.63c-0.049-0.374,0.952-1.316,0.276-1.743c-1.418-0.888-0.036-1.958,0.379-2.657
				c0.115-0.205-1.331-2.173-0.189-1.889c0.192,0.049,1.441,0.517,1.526,0.166c0.018-0.069,0.489-1.111,0.527-1.137
				c0.589-0.42,2.36,1.393,2.801,1.654c1.339,0.778,2.836,1.313,4.124,2.186c0.343,0.238,1.595,1.106,1.231,1.695
				c-0.397,0.627-0.753,0.1-1.237,0.264c-0.704,0.238,1.731,1.283,1.997,1.29c-0.01-0.212-0.776-0.986-0.474-1.175
				c0.433-0.271-0.064-1.298-0.287-1.546c-1.052-1.124-0.809-0.648,0.23-0.532c0.005-0.01,0.013-0.01,0.026,0
				c-0.64-0.988-2.017-0.84-2.652-1.802c-0.041-0.064-0.801-0.12-0.978-0.274c-0.466-0.402-0.996-0.719-1.516-1.039
				c-0.33-0.21-2.501-1.454-1.976-1.999c0.146-0.136,1.646,0.73,1.864,0.891c1.144,0.799,2.376,1.329,3.633,1.933
				c1.044,0.499,1.587,1.705,2.519,2.401c0.445,0.323,0.937,0.881,1.459,1.426c-0.005-0.013-0.008-0.026-0.005-0.044
				c0.019,0.028,0.038,0.059,0.052,0.09c0.006,0.007,0.011,0.012,0.018,0.02c0.005,0.003,0.004,0.009,0.008,0.012
				c0.654,0.67,1.352,1.294,2.04,1.403c-0.379-0.581-0.463-1.17-0.789-1.715c-0.256-0.43-1.318-1.052-1.708-1.418
				c-0.23-0.21-0.174-0.714-0.054-1.024c0.159-0.443,0.73,0.317,0.924,0.141c-0.125,0.115,0.256-0.801,0.371-0.55
				c-0.102-0.241-1.024-0.658-1.242-0.873c-0.548-0.543-1.001-1.201-1.441-1.818c-0.166-0.228-1.728-2.125-1.523-2.301
				c0.102-0.107,1.139,0.668,1.037,0.113c-0.015-0.095-0.346-0.596-0.161-0.704c0.205-0.107,1.472,1.252,1.326,1.423
				c-0.3,0.353-0.804-0.538-0.963-0.358c-0.353,0.415,1.185,0.945,1.19,1.108c-0.118-1.162,1.183,0.274,1.608,0.591
				c0.289,0.22,3.057,2.104,2.642,2.673c-0.225,0.302-2.117-1.308-2.04-0.527c0.082,0.758-0.269,0.543,0.044,1.201
				c0.223,0.479-0.806,0.005-0.466,0.684c0.235,0.494,0.914,0.765,1.226,1.252c0.264,0.394,2.373,2.591,2.888,2.286
				c0.243-0.148-0.146-0.435-0.069-0.548c0.156-0.256,0.863,0.712,1.119,0.548c-0.044,0.028-0.046-1.167,0.33-0.561
				c0.522,0.865,1.193,1.631,1.718,2.488c0.604,0.942,1.352,2.002,1.748,3.046c0.292,0.763-0.975,0.01-1.016,0.018
				c-0.392,0.172,0.174,0.878-0.486,0.607c-0.461-0.187-0.932-0.371-1.393-0.543c-0.865-0.32-1.446-0.781-2.232-1.167
				c-1.759-0.881,0.686,3.305-0.271,2.849c-0.753-0.358-1.416-0.645-2.181-0.957c-0.648-0.266-0.832-1.014-1.492-1.301
				c-1.155-0.509-2.877-0.156-3.786-1.339c-0.312-0.412,0.21-0.968-0.174-1.469c-0.271-0.241-0.54-0.479-0.814-0.722
				c-0.594-0.886,0.287-0.497-0.535-0.753c-0.883-0.271-0.415-0.284-1.288,0.033c-0.632,0.223-1.193-0.282-1.782,0.279
				c-0.095,0.087-2.125,0.225-2.501,0.353c-0.788,0.256-0.712,0.371-1.341,0.891c-0.875,0.709-2.248,1.316-3.459,0.64
				c-1.249-0.707-0.714-0.115-0.822,1.006c-0.077,0.804-0.683,0.829-1.098,1.377c-0.404,0.517-0.645,1.697-0.461,2.35
				c0.218,0.776,0.765,0.904,0.486,1.764c-0.532,1.608-2.13,1.544-2.455,3.11c-0.11,0.568-0.686,0.648-0.755,1.193
				c-0.09,0.684,0.02,1.413-0.297,2.048c-0.471,0.929-1.597,3.195-0.722,4.088c0.686,0.694,0.645,0.76,0.735,1.69
				c0.069,0.773,0.819,1.277,0.827,2.158c0.013,0.796,0.072,2.376-0.399,3.054c-0.561,0.809,0.1,1.05,0.471,1.702
				c0.317,0.581-0.079,1.288,0.287,1.93c0.453,0.786,0.747,0.466,1.428,0.591c-0.146,0.666,0.404,0.919,0.786,1.283
				c0.522,0.484,1.357,0.993,1.771,1.562c0.343,0.489,0.428,1.172,0.714,1.702c0.568,1.078,1.539,1.277,2.493,1.974
				c1.111,0.835,2.022,1.797,3.297,2.409c0.942,0.453,2.627-1.039,3.709-1.126c0.591-0.049,2.074,0.617,2.496,0.379
				c0.607-0.358,1.239-0.701,1.83-1.091c0.917-0.604,2.276-1.567,3.477-1.295c1.318,0.299,0.891,2.074,1.843,2.537
				c1.014,0.497,1.736-1.021,2.67,0.069c1.172,1.367,0.44,2.268,0.538,3.797c0.074,1.083-0.486,2.34-0.23,3.328
				c0.33,1.229,1.157,2.289,1.746,3.392c0.663,1.257,0.548,2.588,0.919,3.922c0.394,1.449-0.128,2.601,0.166,4.088
				c0.325,1.58-0.625,2.268-1.129,3.597c-1.08,2.849-1.695,5.079-1.5,8.097c0.2,3.059-0.778,5.491-1.395,8.425
				c-0.271,1.336-0.172,2.734-0.435,4.124c-0.248,1.249-1.019,2.179-1.283,3.4c-0.356,1.664,1.569-0.021,2.22,0
				c1.341,0.02,2.296-1.142,3.118-2.035c1.91-2.058,3.653-4.526,4.756-7.125c0.584-1.395,1.723-2.363,2.248-3.837
				c0.433-1.208,0.658-2.506,1.134-3.704c1.193-2.936,2.808-5.356,3.392-8.553c0.625-3.418,0.737-6.899,1.032-10.35
				c0.253-2.862,0.573-5.732,0.63-8.614c-0.044-0.218-0.108-2.109-0.056-1.92v0.013c0,0.013,0,0.021,0,0.033
				c0.003,0.015,0.006,0.04,0.009,0.062c-0.001-0.008-0.001-0.016-0.001-0.024c0.001,0.011,0.002,0.022,0.003,0.033
				c0.016,0.124,0.033,0.359,0.066,0.788c0,0,0,0,0,0.001v0l0,0c0,0.105,0,0.177,0,0.264c0.064,1.032,0.164,2.056,0.192,3.1
				C350.643,348.608,328.776,377.572,298.12,387.147z M226.123,305.276c0.357-0.403,0.135-1.584,0.9-0.114
				C227.502,306.09,226.274,305.348,226.123,305.276z M245.572,339.915c0.023,0.026,0.059,0.066,0.09,0.1
				c0.567,0.647-1.195-0.169-1.433-0.419c-0.11-0.102-0.056-0.791,0.292-0.612C244.877,339.17,245.286,339.6,245.572,339.915z
				 M257.59,377.644c0.205,0.023,0.404,0.021,0.599-0.01c0.123,0.056-0.177,0.402-0.195,0.52c-0.051-0.051-0.11-0.095-0.156-0.133
				c-0.366-0.297-0.374,0.317-0.596-0.33c-0.023-0.061-0.435-0.794,0.197-0.576C257.677,377.196,257.234,377.488,257.59,377.644z
				 M256.876,314.658c-0.056-0.525,0.215-0.97,0.666-1.231C257.377,313.644,256.909,314.97,256.876,314.658
				C256.814,314.107,256.883,314.719,256.876,314.658z M267.51,325.182c-0.195-0.507-0.515-0.571-0.253-1.172
				c0.245,0.353,0.445,1.664,0.254,1.174C267.513,325.19,267.514,325.193,267.51,325.182z M276.452,331.487
				c0.225,0.074,1.042-0.502,1.436-0.535c0.427-0.033,0.502-0.699,0.732-0.691c-0.184,0.502-0.131,0.963-1.019,0.978
				c-0.259,0.01-0.586,0.394-0.197,0.481c-0.458-0.113-0.179,0.522-0.279,0.612c-0.164,0.136-0.282-0.497-0.492-0.064
				c-0.087,0.187-0.138,0.878-0.502,0.696c0.146,0.082,0.069,0.038-0.005,0c-0.007-0.002-0.008-0.001-0.012-0.002
				c-0.001-0.001-0.001-0.001-0.002-0.001C275.62,332.684,276.979,331.95,276.452,331.487z M257.262,259.123
				c0.184-0.458,1.669-0.845,1.672-0.451C258.944,258.908,257.513,258.857,257.262,259.123z M260.879,259.159
				c-0.026-0.307,0.988-0.507,1.16-0.469C261.957,258.742,260.897,259.385,260.879,259.159z M252.045,251.446
				c-0.067-0.102,0.64-0.522,0.773-0.407C252.69,251.118,252.163,251.605,252.045,251.446z M260.104,250.145
				c0.169,0,0.284,0.077,0.341,0.233c-0.041,0.215-0.74,0.289-0.735,0.133C259.758,250.297,259.886,250.174,260.104,250.145z
				 M305.121,253.059c-0.077-0.23,0.881-0.028,0.62,0.392c-0.166,0.284-0.568-0.266-0.614-0.381
				C305.149,253.118,305.193,253.238,305.121,253.059z M307.425,257.987c0,0.148-0.202-0.133-0.33-0.256
				C307.223,257.79,307.433,257.92,307.425,257.987z M325.051,306.632c0.387-0.65,0.681,0.929,0.52,0.945
				c0.013,0.269-0.018,0.527-0.087,0.791c-0.353-0.082-0.563-0.256-0.625-0.535C326.065,307.884,324.867,306.947,325.051,306.632z"
				/>
			<path d="M267.51,325.182c0,0.001,0,0.001,0.001,0.001C267.496,325.144,267.401,324.9,267.51,325.182z"/>
			<path d="M259.208,245.937C258.903,246.029,259.146,245.942,259.208,245.937c-0.363,0.005-0.95-0.008-1.175,0.379
				C259.331,246.817,258.417,246.152,259.208,245.937z"/>
			<path d="M299.727,256.835c0.013,0.008,0.018,0.026,0.018,0.038C299.694,256.732,299.638,256.581,299.727,256.835z"/>
			<path d="M283.564,250.076c0.102,0.156,0.243,0.189,0.407,0.095c-0.128-0.026,0.445-0.028,0,0c0.133,0.003,0.264,0.003,0.387,0.01
				c0.072,0.148,0.056,0.248-0.038,0.297c0.497-0.156,0.835,0.666,1.411,0.609c0.509-0.049,3.154,0.435,3.139-0.788
				C288.847,249.04,283.556,249.951,283.564,250.076z"/>
			<path d="M264.98,262.754c0.366-0.484-0.781-0.471-0.975-0.307c-0.448,0.402-0.571-0.463-0.666-0.535
				c-0.192-0.146-0.54,0.213-0.617,0.123c-0.197-0.205,1.28-1.16,1.142-1.398c-0.422-0.773-3.259,2.885-3.287,2.903
				c-1.81,0.671,2.627,0.435,2.66,0.732c0.033,0.23-0.489,0.2-0.42,0.366c0.036,0.095,1.779-0.753,1.574-0.341
				c-0.233,0.476,0.783,0.599,1.108-0.018c0.195-0.371-0.215-0.74-0.174-1.08C265.347,263.045,264.689,263.13,264.98,262.754z
				 M264.784,263.882c-0.002-0.001-0.002-0.002-0.004-0.003c-0.159-0.122,0.206-0.442,0.29-0.381
				C265.174,263.567,264.93,263.988,264.784,263.882z M265.323,263.765C265.418,263.665,265.431,263.949,265.323,263.765
				L265.323,263.765z"/>
			<path d="M260.539,245.968c-0.061-0.317-1.539,0.504-1.052,0.62c0.742,0.182,2.207,0.172,2.839-0.264
				C261.867,246.07,260.662,246.687,260.539,245.968z"/>
			<path d="M266.296,318.684c0.105-0.107,0.174-0.236,0.2-0.387c-0.422-0.013-0.799,0.771-0.307,0.643
				c-0.005,0,1.188-0.184,0.814-0.31C267.062,318.649,266.296,318.656,266.296,318.684z"/>
			<path d="M280.883,247.337c0.358-0.148,1.021,0.609,1.495,0.266c-0.315-0.358-0.906-0.317-0.998-0.86
				c-0.12-0.719,0.2-0.896-0.732-1.242c0.054-0.041-0.937-0.468-1.201-0.527c-0.724-0.143-0.115-0.52-0.394-0.909
				c-0.164-0.236-0.955-0.028-1.134-0.013c-1.039,0.074-2.104-0.305-3.169-0.248c-1.388,0.082-2.734,0.471-4.137,0.364
				c-2.112-0.156-6.346-0.351-8.079,1.103c0.097,0.008,0.402-0.013,0.461,0.123c-0.363,0.271-0.64,0.051-1.014,0.412
				c0.189-0.182,0.238-0.003,0.164,0.051c1.201,0.509,6.405-1.764,6.454-1.103c0.018,0.287-2.767,0.363-2.598,1.044
				c0.092,0.366,1.933,0.049,2.26,0.118c1.364,0.274,0.154,1.428,0.433,1.789c0.046,0.054,1.418-0.123,1.441,0.271
				c-0.177-0.328-3.057,1.062-0.891,0.699c0.169-0.023,0.479-0.402,0.617-0.294c0.448,0.371-0.148,0.691-0.466,0.678
				c-2.373-0.118-0.095,4.823,2.002,4.48c1.098-0.172,1.789,1.357,2.46-0.264c0.238-0.571,0.32-1.226,0.957-1.513
				c0.466-0.213-0.046-0.914,0.11-0.965c0.699-0.261,1.306-0.394,2.038-0.538c0.875-0.164,1.029-0.827,1.736-1.18
				c0.282-0.143,3.745-0.502,3.441-1.134c-0.266-0.548-2.248,0.422-2.227-0.292C280.819,248.105,280.31,247.575,280.883,247.337z"/>
			<path d="M256.963,265.234C257.039,265.234,256.571,265.247,256.963,265.234c-0.271,0.005-1.357-0.44-1.29-0.179
				c0.169,0.671,1.172,0.591,1.521,0.266C257.142,265.221,257.068,265.191,256.963,265.234z"/>
			<path d="M330.772,273.134c0.067-0.166-1.093-0.371-1.195-0.341C329.659,273.019,330.598,273.546,330.772,273.134z"/>
			<path d="M267.363,384.533c0.004-0.004,0.012-0.012,0.016-0.016c0,0,0.001-0.001,0.001-0.002
				c-0.014,0.001-0.011,0.017-0.029,0.014C267.359,384.538,267.358,384.529,267.363,384.533z"/>
			<path d="M317.875,268.314c0.23,0.174,1.208,1.805,1.475,1.541c0.54-0.558-0.747-1.818-1.093-2.258
				C318.1,267.664,317.627,268.135,317.875,268.314z"/>
			<path d="M317.857,267.436c0,0,0.018-0.003,0.02,0.01c-0.128-0.338-0.407-0.84-0.686-1.088
				C316.731,265.969,317.135,267.292,317.857,267.436z"/>
			<path d="M258.934,249.582C258.903,249.631,258.808,249.836,258.934,249.582L258.934,249.582z"/>
			<path d="M258.934,249.582c0.059-0.154-0.927,0.067-1.057,0.346C257.838,250.018,258.788,249.89,258.934,249.582z"/>
			<path d="M326.341,270.208c0-0.011-0.007-0.015-0.013-0.021c-0.005-0.005-0.01-0.01-0.015-0.015
				c-0.002-0.006-0.007-0.011-0.01-0.017c-0.013-0.015-0.026-0.03-0.039-0.044C326.269,270.152,326.303,270.178,326.341,270.208z"/>
			<rect x="286.82" y="411.088" width="11.461" height="10.435"/>
			<rect x="310.863" y="411.088" width="11.466" height="10.435"/>
			<path d="M349.591,311.568C349.591,311.567,349.591,311.567,349.591,311.568c-0.017-0.261-0.048-0.524-0.066-0.789
				c0-0.003-0.001-0.006-0.001-0.009c0.022,0.328,0.04,0.66,0.06,0.995C349.583,311.698,349.591,311.632,349.591,311.568z"/>
			<path d="M349.571,312.584c0.008,0.082,0.021-0.12,0.021-0.753c-0.008-0.026-0.008-0.046-0.008-0.064
				C349.578,312.036,349.571,312.313,349.571,312.584z"/>
			<path d="M251.899,306.443c0.65,0.172,0.906-0.008,0.906-0.663C252.803,304.83,251.894,306.443,251.899,306.443z"/>
			<rect x="334.909" y="411.088" width="11.466" height="10.435"/>
			<path d="M243.86,295.383c-0.067-0.161,0-0.233,0.195-0.215c-0.223-0.586-4.137-1.152-4.265-0.515
				c0.02-0.105,1.011,1.139,0.873,1.37c-0.276,0.471-1.334,0.082-1.69,0.044c-0.433-0.044-0.666,0.402-0.161,0.448
				c0.008,0.001,0.021,0,0.029,0c-0.012-0.001-0.016-0.002-0.029-0.003c-0.031-0.003-0.004-0.001,0.039,0.003
				c0.627,0.037,2.232-0.357,2.498,0.407c0.169,0.484,0.515-0.189,0.622-0.305c0.399-0.427,0.852,0.056,1.106-0.279
				c0.42-0.538,1.323,0.264,1.669-0.008C245.519,295.719,244.17,295.522,243.86,295.383z"/>
			<path d="M238.851,296.515c-0.003,0-0.007,0-0.009,0C239.188,296.547,238.964,296.525,238.851,296.515z"/>
			<path d="M251.686,306.542c0.041-0.018,0.1-0.044,0.212-0.1C251.881,306.435,251.748,306.506,251.686,306.542z"/>
			<path d="M238.774,294.28c0.128-0.01,0.218-0.067,0.279-0.172c0.056-0.351-3.628-2.23-4.076-2.46
				c-1.708-0.886-4.293-1.8-5.44,0.517c0.497,0.154,2.34-1.692,2.701-0.837c-0.074,0.141-0.202,0.251-0.346,0.32
				c-0.046,0.243,2.752,0.676,2.964,0.881c0.448,0.428-0.038,1.111,0.942,1.024c0.983-0.1-0.274,0.94-0.274,0.95
				c0.049,0.187,2.931-0.108,3.244-0.223C238.676,294.313,238.126,294.526,238.774,294.28z"/>
			<path d="M247.04,296.064c-0.046-0.65-1.423,0.673-0.599,0.64C247.406,296.679,248.714,296.105,247.04,296.064z"/>
			<path d="M234.749,296.336c-0.571,0.154,0.658,0.814,1.167,0.625c0.197-0.082,0.404,0.182,0.568-0.041
				C236.872,296.41,234.918,296.284,234.749,296.336z"/>
			<path d="M256.712,262.247c0.177,0.192,1.49,1.004,1.677,0.522C258.532,262.428,256.909,262.134,256.712,262.247z"/>
			<rect x="250.721" y="411.088" width="11.471" height="10.435"/>
			<path d="M236.439,288.428c0,0.003,0.002,0.014,0.002,0.019C236.45,288.489,236.464,288.553,236.439,288.428z"/>
			<path d="M234.749,296.336C235.361,296.174,234.647,296.356,234.749,296.336L234.749,296.336z"/>
			<path d="M236.529,289.559c0.059-0.017-0.072-0.97-0.087-1.112c-0.004-0.021-0.007-0.038-0.002-0.019
				C236.344,287.931,235.505,289.685,236.529,289.559z"/>
			<path d="M492.634,213.269L216.812,72.648c-17.416-8.883-38.922-1.9-47.795,15.511l-19.461,38.188l-25.7,50.401h124.547
				l-87.547-44.631l19.471-38.193c5.719-11.22,19.502-15.7,30.725-9.976l275.817,140.626c11.226,5.724,15.703,19.507,9.974,30.725
				l-19.466,38.185l-84.027-42.839v108.861l39.977,20.38l-19.471,38.188c-4.925,9.672-15.841,14.31-25.943,11.758
				c-2.053,3.955-4.649,7.583-7.685,10.806c16.842,6.789,36.534-0.328,44.928-16.801l19.469-38.182l44.05-86.403l19.474-38.19
				C517.02,243.651,510.036,222.147,492.634,213.269z"/>
		</g>
	</g>
</g>
<g>
</g>
<g>
</g>
<g>
</g>
<g>
</g>
<g>
</g>
<g>
</g>
<g>
</g>
<g>
</g>
<g>
</g>
<g>
</g>
<g>
</g>
<g>
</g>
<g>
</g>
<g>
</g>
<g>
</g>
</svg>
