<svg xmlns="http://www.w3.org/2000/svg" xmlns:xlink="http://www.w3.org/1999/xlink" width="510" zoomAndPan="magnify" viewBox="0 0 382.5 215.249992" height="287" preserveAspectRatio="xMidYMid meet" version="1.0"><defs><g/><clipPath id="2fb8a6c942"><path d="M 91.460938 0.476562 L 290.539062 0.476562 L 290.539062 135.847656 L 91.460938 135.847656 Z M 91.460938 0.476562 " clip-rule="nonzero"/></clipPath></defs><g clip-path="url(#2fb8a6c942)"><path fill="#545454" d="M 244.816406 118.253906 L 244.816406 51.664062 L 242.707031 50.945312 L 242.707031 117.738281 C 241.273438 117.378906 239.839844 117.058594 238.367188 116.742188 L 238.367188 49.433594 L 236.257812 48.71875 L 236.257812 116.304688 C 234.824219 115.984375 233.390625 115.707031 231.917969 115.429688 L 231.917969 47.203125 L 229.808594 46.488281 L 229.808594 115.070312 C 227.976562 114.75 226.148438 114.433594 224.316406 114.15625 L 224.316406 31.722656 L 208.714844 42.746094 L 208.714844 112.363281 C 206.484375 112.203125 204.214844 112.046875 201.945312 111.925781 L 201.945312 24.597656 L 199.835938 23.878906 L 199.835938 111.847656 C 198.40625 111.804688 196.972656 111.765625 195.5 111.726562 L 195.5 22.40625 L 193.390625 21.691406 L 193.390625 111.726562 C 192.554688 111.726562 191.71875 111.726562 190.882812 111.726562 C 187.300781 111.726562 183.757812 111.804688 180.214844 111.964844 L 180.214844 0.476562 L 161.226562 14.882812 L 161.226562 50.230469 L 169.347656 53.8125 L 168.949219 112.722656 C 167.714844 112.839844 166.441406 112.960938 165.207031 113.121094 L 165.207031 66.429688 L 163.097656 65.59375 L 163.097656 113.359375 C 161.664062 113.558594 160.191406 113.71875 158.761719 113.957031 L 158.761719 63.882812 L 156.648438 63.046875 L 156.648438 114.273438 C 155.21875 114.511719 153.746094 114.75 152.3125 114.992188 L 152.3125 61.296875 L 150.203125 60.460938 L 150.203125 115.347656 C 148.53125 115.667969 146.859375 115.984375 145.226562 116.34375 L 145.226562 44.699219 L 128.75 56.320312 L 128.75 120.523438 C 115.453125 124.542969 102.835938 129.835938 91.492188 136.207031 C 120.828125 126.613281 154.78125 121.121094 191 121.121094 C 227.222656 121.121094 261.175781 126.613281 290.511719 136.207031 C 276.898438 128.5625 261.492188 122.433594 244.816406 118.253906 Z M 244.816406 118.253906 " fill-opacity="1" fill-rule="nonzero"/></g><path fill="#545454" d="M 189.167969 20.179688 L 187.101562 19.460938 L 187.101562 111.6875 L 189.167969 111.6875 Z M 189.167969 20.179688 " fill-opacity="1" fill-rule="nonzero"/><g fill="#545454" fill-opacity="1"><g transform="translate(48.821118, 176.593852)"><g><path d="M 30.511719 -0.683594 C 29.101562 -0.894531 27.824219 -0.597656 26.925781 -2.476562 L 16.640625 -26.96875 C 15.148438 -27.265625 14.894531 -26.710938 14.335938 -25.390625 C 11.179688 -17.835938 8.023438 -10.285156 4.863281 -2.730469 C 3.96875 -0.554688 2.644531 -0.894531 1.195312 -0.683594 C 0.769531 -0.597656 0.8125 -0.171875 1.238281 -0.171875 C 2.347656 -0.171875 3.113281 -0.171875 4.011719 -0.171875 L 4.011719 -0.214844 L 4.992188 -0.214844 L 4.992188 -0.171875 C 5.929688 -0.171875 7.636719 -0.171875 8.746094 -0.171875 C 9.175781 -0.171875 9.21875 -0.597656 8.789062 -0.683594 C 7.382812 -0.894531 5.207031 -0.597656 5.972656 -2.476562 L 7.59375 -6.402344 L 21.71875 -6.402344 C 22.273438 -5.078125 22.828125 -3.796875 23.339844 -2.476562 C 24.109375 -0.597656 22.660156 -0.894531 21.25 -0.683594 C 20.824219 -0.597656 20.824219 -0.171875 21.292969 -0.171875 C 22.402344 -0.171875 23.382812 -0.171875 24.324219 -0.171875 L 24.324219 -0.214844 L 27.652344 -0.214844 L 27.652344 -0.171875 C 28.589844 -0.171875 29.359375 -0.171875 30.46875 -0.171875 C 30.894531 -0.171875 30.894531 -0.597656 30.511719 -0.683594 Z M 8.023438 -7.339844 L 14.210938 -22.0625 C 14.464844 -22.703125 14.765625 -22.703125 15.0625 -22.0625 C 17.113281 -17.152344 19.203125 -12.246094 21.292969 -7.339844 Z M 8.023438 -7.339844 "/></g></g></g><g fill="#545454" fill-opacity="1"><g transform="translate(80.476008, 176.593852)"><g><path d="M 28.761719 -11.265625 L 20.269531 -11.265625 C 19.800781 -11.265625 19.800781 -10.625 20.226562 -10.539062 C 21.636719 -10.328125 23.382812 -10.453125 23.382812 -8.191406 C 23.382812 -7.082031 23.382812 -6.101562 23.382812 -4.222656 C 23.382812 -3.371094 23.042969 -2.859375 22.191406 -2.261719 C 20.738281 -1.367188 18.648438 -0.683594 15.53125 -0.683594 C 0.511719 -0.683594 0.46875 -26.457031 15.53125 -26.457031 C 17.539062 -26.457031 19.203125 -26.328125 20.3125 -25.773438 C 22.828125 -24.492188 22.402344 -23.128906 23 -22.0625 C 23.46875 -21.164062 24.109375 -20.824219 24.707031 -20.824219 C 25.945312 -20.824219 27.011719 -22.359375 25.644531 -23.980469 C 24.878906 -24.878906 23.257812 -25.773438 21.976562 -26.328125 C 21.71875 -26.457031 21.507812 -26.542969 21.335938 -26.585938 L 21.292969 -26.585938 C 19.628906 -27.183594 17.707031 -27.566406 15.53125 -27.566406 C -4.011719 -27.566406 -4.011719 0.382812 15.53125 0.382812 C 21.464844 0.382812 23.042969 -1.449219 26.15625 -1.449219 C 26.242188 -1.449219 26.371094 -1.535156 26.371094 -1.664062 L 26.371094 -7.9375 C 26.371094 -10.199219 27.394531 -10.328125 28.804688 -10.539062 C 29.230469 -10.625 29.230469 -11.265625 28.761719 -11.265625 Z M 28.761719 -11.265625 "/></g></g></g><g fill="#545454" fill-opacity="1"><g transform="translate(110.4671, 176.593852)"><g><path d="M 9.6875 -0.894531 C 8.234375 -1.152344 7 -0.8125 7 -3.03125 L 7 -24.109375 C 7 -26.371094 8.234375 -25.988281 9.6875 -26.242188 C 10.113281 -26.328125 10.070312 -26.96875 9.644531 -26.96875 L 1.238281 -26.96875 C 0.769531 -26.96875 0.769531 -26.328125 1.195312 -26.242188 C 2.601562 -25.988281 3.839844 -26.371094 3.839844 -24.109375 L 3.839844 -3.03125 C 3.839844 -0.8125 2.601562 -1.152344 1.195312 -0.894531 C 0.769531 -0.851562 0.769531 -0.214844 1.238281 -0.214844 L 9.644531 -0.214844 C 10.070312 -0.214844 10.113281 -0.851562 9.6875 -0.894531 Z M 9.6875 -0.894531 "/></g></g></g><g fill="#545454" fill-opacity="1"><g transform="translate(121.345802, 176.593852)"><g><path d="M 22.746094 -5.632812 C 22.105469 -2.859375 21.039062 -1.152344 16.597656 -1.152344 L 8.578125 -1.152344 C 7.679688 -1.238281 7 -1.664062 7 -2.945312 L 7 -24.109375 C 7 -26.371094 8.234375 -25.988281 9.6875 -26.242188 C 10.113281 -26.328125 10.070312 -26.96875 9.644531 -26.96875 L 1.238281 -26.96875 C 0.769531 -26.96875 0.769531 -26.328125 1.195312 -26.242188 C 2.601562 -25.988281 3.839844 -26.371094 3.839844 -24.109375 L 3.839844 -3.03125 C 3.839844 -0.8125 2.601562 -1.152344 1.195312 -0.894531 C 0.769531 -0.851562 0.769531 -0.214844 1.238281 -0.214844 L 22.957031 -0.214844 C 23.085938 -0.214844 23.257812 -0.257812 23.257812 -0.425781 L 23.46875 -5.589844 C 23.46875 -5.972656 22.828125 -6.015625 22.746094 -5.632812 Z M 22.746094 -5.632812 "/></g></g></g><g fill="#545454" fill-opacity="1"><g transform="translate(146.516145, 176.593852)"><g><path d="M 9.6875 -0.894531 C 8.234375 -1.152344 7 -0.8125 7 -3.03125 L 7 -24.109375 C 7 -26.371094 8.234375 -25.988281 9.6875 -26.242188 C 10.113281 -26.328125 10.070312 -26.96875 9.644531 -26.96875 L 1.238281 -26.96875 C 0.769531 -26.96875 0.769531 -26.328125 1.195312 -26.242188 C 2.601562 -25.988281 3.839844 -26.371094 3.839844 -24.109375 L 3.839844 -3.03125 C 3.839844 -0.8125 2.601562 -1.152344 1.195312 -0.894531 C 0.769531 -0.851562 0.769531 -0.214844 1.238281 -0.214844 L 9.644531 -0.214844 C 10.070312 -0.214844 10.113281 -0.851562 9.6875 -0.894531 Z M 9.6875 -0.894531 "/></g></g></g><g fill="#545454" fill-opacity="1"><g transform="translate(157.394847, 176.593852)"><g><path d="M 22.617188 -5.417969 C 21.976562 -2.644531 21.121094 -0.9375 16.683594 -0.9375 L 5.460938 -0.9375 C 4.863281 -0.9375 4.777344 -1.238281 5.035156 -1.707031 L 23.425781 -26.796875 L 1.707031 -26.796875 C 1.535156 -26.796875 1.40625 -26.753906 1.367188 -26.585938 L 1.152344 -21.378906 C 1.152344 -21.039062 1.792969 -20.953125 1.878906 -21.335938 C 2.519531 -24.109375 3.371094 -25.816406 7.808594 -25.816406 L 19.03125 -25.816406 C 13.355469 -17.667969 6.570312 -9.644531 1.023438 -1.492188 C 0.726562 -0.980469 0.769531 -0.0859375 1.707031 0 L 1.707031 0.0429688 L 22.785156 0.0429688 C 22.957031 0.0429688 23.085938 0 23.128906 -0.171875 L 23.339844 -5.375 C 23.339844 -5.761719 22.703125 -5.804688 22.617188 -5.417969 Z M 22.617188 -5.417969 "/></g></g></g><g fill="#545454" fill-opacity="1"><g transform="translate(182.522525, 176.593852)"><g><path d="M 30.511719 -0.683594 C 29.101562 -0.894531 27.824219 -0.597656 26.925781 -2.476562 L 16.640625 -26.96875 C 15.148438 -27.265625 14.894531 -26.710938 14.335938 -25.390625 C 11.179688 -17.835938 8.023438 -10.285156 4.863281 -2.730469 C 3.96875 -0.554688 2.644531 -0.894531 1.195312 -0.683594 C 0.769531 -0.597656 0.8125 -0.171875 1.238281 -0.171875 C 2.347656 -0.171875 3.113281 -0.171875 4.011719 -0.171875 L 4.011719 -0.214844 L 4.992188 -0.214844 L 4.992188 -0.171875 C 5.929688 -0.171875 7.636719 -0.171875 8.746094 -0.171875 C 9.175781 -0.171875 9.21875 -0.597656 8.789062 -0.683594 C 7.382812 -0.894531 5.207031 -0.597656 5.972656 -2.476562 L 7.59375 -6.402344 L 21.71875 -6.402344 C 22.273438 -5.078125 22.828125 -3.796875 23.339844 -2.476562 C 24.109375 -0.597656 22.660156 -0.894531 21.25 -0.683594 C 20.824219 -0.597656 20.824219 -0.171875 21.292969 -0.171875 C 22.402344 -0.171875 23.382812 -0.171875 24.324219 -0.171875 L 24.324219 -0.214844 L 27.652344 -0.214844 L 27.652344 -0.171875 C 28.589844 -0.171875 29.359375 -0.171875 30.46875 -0.171875 C 30.894531 -0.171875 30.894531 -0.597656 30.511719 -0.683594 Z M 8.023438 -7.339844 L 14.210938 -22.0625 C 14.464844 -22.703125 14.765625 -22.703125 15.0625 -22.0625 C 17.113281 -17.152344 19.203125 -12.246094 21.292969 -7.339844 Z M 8.023438 -7.339844 "/></g></g></g><g fill="#545454" fill-opacity="1"><g transform="translate(214.177415, 176.593852)"><g/></g></g><g fill="#545454" fill-opacity="1"><g transform="translate(223.520297, 176.593852)"><g><path d="M 25.175781 -5.25 C 23.640625 -3.03125 21.464844 -0.683594 15.574219 -0.683594 C 0.640625 -0.683594 0.980469 -26.457031 15.574219 -26.457031 C 16.984375 -26.457031 18.777344 -26.328125 20.140625 -25.859375 C 22.914062 -24.578125 22.445312 -23.171875 23 -22.0625 C 23.46875 -21.164062 24.152344 -20.824219 24.75 -20.824219 C 25.988281 -20.824219 27.054688 -22.359375 25.6875 -23.980469 C 24.921875 -24.878906 22.53125 -26.328125 21.335938 -26.585938 C 19.671875 -27.183594 17.75 -27.566406 15.574219 -27.566406 C -4.011719 -27.566406 -4.011719 0.382812 15.574219 0.382812 C 20.738281 0.382812 24.066406 -1.578125 26.5 -4.4375 C 27.097656 -5.121094 26.628906 -5.804688 26.03125 -5.804688 C 25.773438 -5.804688 25.433594 -5.632812 25.175781 -5.25 Z M 25.175781 -5.25 "/></g></g></g><g fill="#545454" fill-opacity="1"><g transform="translate(251.16501, 176.593852)"><g><path d="M 25.773438 -9.429688 C 25.007812 -9.429688 24.410156 -8.917969 24.410156 -8.109375 C 24.410156 -7.167969 25.21875 -6.613281 25.988281 -5.71875 C 27.265625 -4.308594 26.117188 -1.835938 23.8125 -1.835938 C 19.84375 -1.835938 18.777344 -7.765625 14.335938 -8.875 C 19.671875 -9.34375 25.175781 -11.90625 25.175781 -17.878906 C 25.175781 -23.769531 19.714844 -26.796875 13.613281 -26.796875 L 1.238281 -26.796875 C 0.769531 -26.796875 0.769531 -26.15625 1.195312 -26.074219 C 2.601562 -25.859375 3.882812 -26.199219 3.882812 -23.9375 L 3.882812 -2.816406 C 3.882812 -0.554688 2.601562 -0.894531 1.195312 -0.683594 C 0.769531 -0.597656 0.769531 0.0429688 1.238281 0.0429688 L 9.6875 0.0429688 C 10.113281 0.0429688 10.113281 -0.597656 9.730469 -0.683594 C 8.277344 -0.894531 7.039062 -0.554688 7.039062 -2.816406 L 7.039062 -24.023438 C 7.039062 -25.519531 7.9375 -25.816406 9.003906 -25.816406 L 8.875 -25.859375 C 9.132812 -25.859375 9.472656 -25.859375 10.285156 -25.859375 C 17.238281 -25.859375 21.550781 -23.300781 21.550781 -17.835938 C 21.550781 -12.375 16.597656 -9.515625 10.285156 -9.515625 C 9.601562 -9.515625 9.898438 -9.558594 9.261719 -9.644531 C 8.535156 -9.730469 8.535156 -8.746094 9.300781 -8.789062 C 14.808594 -8.578125 16.683594 0.382812 22.402344 0.382812 C 26.117188 0.382812 27.523438 -2.601562 27.566406 -5.589844 C 27.609375 -6.871094 27.652344 -9.429688 25.773438 -9.429688 Z M 25.773438 -9.429688 "/></g></g></g><g fill="#545454" fill-opacity="1"><g transform="translate(279.620283, 176.593852)"><g><path d="M 22.746094 -4.90625 C 22.105469 -2.132812 21.507812 -1.152344 17.070312 -1.152344 L 8.578125 -1.152344 C 7.679688 -1.238281 7 -1.664062 7 -2.945312 L 7 -12.503906 L 15.488281 -12.503906 C 18.136719 -12.503906 18.734375 -11.136719 18.820312 -9.816406 C 18.859375 -9.386719 19.542969 -9.429688 19.542969 -9.855469 L 19.542969 -16.085938 C 19.542969 -16.558594 18.859375 -16.558594 18.820312 -16.128906 C 18.734375 -14.851562 18.136719 -13.441406 15.488281 -13.441406 L 7 -13.441406 L 7 -24.195312 C 7 -25.6875 7.851562 -25.988281 8.917969 -25.988281 L 15.617188 -25.988281 C 20.054688 -25.988281 21.121094 -25.007812 21.761719 -22.230469 C 21.847656 -21.847656 22.53125 -21.933594 22.53125 -22.273438 L 22.273438 -26.753906 C 22.273438 -26.882812 22.148438 -26.96875 21.976562 -26.96875 L 1.238281 -26.96875 C 0.769531 -26.96875 0.769531 -26.328125 1.195312 -26.242188 C 2.601562 -25.988281 3.839844 -26.371094 3.839844 -24.109375 L 3.839844 -3.03125 C 3.839844 -0.8125 2.601562 -1.152344 1.195312 -0.894531 C 0.769531 -0.851562 0.769531 -0.214844 1.238281 -0.214844 L 22.957031 -0.214844 C 23.085938 -0.214844 23.257812 -0.257812 23.257812 -0.425781 L 23.46875 -4.863281 C 23.46875 -5.25 22.828125 -5.292969 22.746094 -4.90625 Z M 22.746094 -4.90625 "/></g></g></g><g fill="#545454" fill-opacity="1"><g transform="translate(303.937402, 176.593852)"><g><path d="M 12.671875 -26.96875 L 1.238281 -26.96875 C 0.769531 -26.96875 0.769531 -26.328125 1.195312 -26.242188 C 2.601562 -25.988281 3.839844 -26.371094 3.839844 -24.109375 C 3.839844 -18.476562 3.839844 -8.664062 3.839844 -3.03125 C 3.839844 -0.8125 2.601562 -1.152344 1.195312 -0.894531 C 0.769531 -0.851562 0.769531 -0.214844 1.238281 -0.214844 L 12.671875 -0.214844 C 33.539062 -0.214844 33.582031 -26.96875 12.671875 -26.96875 Z M 11.949219 -1.109375 L 8.960938 -1.109375 C 7.894531 -1.109375 7 -1.449219 7 -2.945312 L 7 -24.195312 C 7 -25.6875 7.851562 -25.988281 8.917969 -25.988281 L 11.949219 -25.988281 C 29.445312 -25.988281 29.699219 -1.109375 11.949219 -1.109375 Z M 11.949219 -1.109375 "/></g></g></g><g fill="#545454" fill-opacity="1"><g transform="translate(99.823619, 206.647005)"><g><path d="M 1.546875 0 L 1.546875 -11.125 L 7.5625 -11.125 L 7.5625 -9.5 L 3.40625 -9.546875 L 3.328125 -6.4375 L 7.171875 -6.4375 L 7.171875 -4.859375 L 3.328125 -4.859375 L 3.40625 -1.59375 L 7.5625 -1.625 L 7.5625 0 Z M 1.546875 0 "/></g></g></g><g fill="#545454" fill-opacity="1"><g transform="translate(116.132044, 206.647005)"><g><path d="M 1.484375 0 L 1.84375 -11.125 L 4.359375 -11.125 L 6.484375 -4.375 L 6.578125 -4.375 L 8.65625 -11.125 L 11.1875 -11.125 L 11.578125 0 L 9.734375 0 L 9.703125 -9.296875 L 9.609375 -9.296875 L 7.53125 -2.734375 L 5.5625 -2.734375 L 3.421875 -9.296875 L 3.328125 -9.296875 L 3.34375 0 Z M 1.484375 0 "/></g></g></g><g fill="#545454" fill-opacity="1"><g transform="translate(136.995378, 206.647005)"><g><path d="M 1.546875 -11.109375 C 3.046875 -11.265625 4.34375 -11.34375 5.4375 -11.34375 C 6.539062 -11.34375 7.375 -11.015625 7.9375 -10.359375 C 8.5 -9.710938 8.78125 -8.765625 8.78125 -7.515625 C 8.78125 -5.984375 8.398438 -4.921875 7.640625 -4.328125 C 6.984375 -3.796875 6.160156 -3.53125 5.171875 -3.53125 L 3.40625 -3.609375 L 3.40625 0 L 1.546875 0 L 1.609375 -5.171875 Z M 3.40625 -5.265625 C 4.019531 -5.160156 4.660156 -5.109375 5.328125 -5.109375 C 6.003906 -5.109375 6.425781 -5.257812 6.59375 -5.5625 C 6.757812 -5.863281 6.84375 -6.554688 6.84375 -7.640625 C 6.84375 -8.734375 6.695312 -9.390625 6.40625 -9.609375 C 6.207031 -9.773438 5.789062 -9.859375 5.15625 -9.859375 C 4.519531 -9.859375 3.9375 -9.816406 3.40625 -9.734375 Z M 3.40625 -5.265625 "/></g></g></g><g fill="#545454" fill-opacity="1"><g transform="translate(154.402716, 206.647005)"><g><path d="M 5.40625 -11.34375 C 7.96875 -11.34375 9.25 -10.144531 9.25 -7.75 C 9.25 -5.988281 8.472656 -4.890625 6.921875 -4.453125 L 6.921875 -4.375 L 9.515625 0 L 7.34375 0 L 5.171875 -4.203125 L 3.421875 -4.265625 L 3.421875 0 L 1.546875 0 L 1.625 -5.21875 L 1.578125 -11.109375 C 2.765625 -11.265625 4.039062 -11.34375 5.40625 -11.34375 Z M 3.40625 -5.859375 C 4.25 -5.765625 4.984375 -5.71875 5.609375 -5.71875 C 6.242188 -5.71875 6.6875 -5.875 6.9375 -6.1875 C 7.1875 -6.5 7.3125 -7.0625 7.3125 -7.875 C 7.3125 -8.6875 7.179688 -9.234375 6.921875 -9.515625 C 6.703125 -9.753906 6.242188 -9.875 5.546875 -9.875 C 4.847656 -9.875 4.140625 -9.828125 3.421875 -9.734375 Z M 3.40625 -5.859375 "/></g></g></g><g fill="#545454" fill-opacity="1"><g transform="translate(172.81341, 206.647005)"><g><path d="M 1.546875 0 L 1.546875 -11.125 L 7.5625 -11.125 L 7.5625 -9.484375 L 3.40625 -9.53125 L 3.328125 -6.4375 L 7.171875 -6.4375 L 7.171875 -4.859375 L 3.328125 -4.859375 L 3.40625 -1.59375 L 7.5625 -1.625 L 7.5625 0 Z M 2.640625 -11.8125 L 2.34375 -12.859375 L 6.421875 -14.125 L 6.859375 -12.703125 Z M 2.640625 -11.8125 "/></g></g></g><g fill="#545454" fill-opacity="1"><g transform="translate(189.121834, 206.647005)"><g><path d="M 4.5 -1.46875 C 5.4375 -1.46875 5.90625 -1.976562 5.90625 -3 C 5.90625 -3.425781 5.726562 -3.785156 5.375 -4.078125 C 5.03125 -4.378906 4.546875 -4.671875 3.921875 -4.953125 C 3.304688 -5.234375 2.953125 -5.398438 2.859375 -5.453125 C 2.765625 -5.503906 2.597656 -5.59375 2.359375 -5.71875 C 2.128906 -5.84375 1.96875 -5.945312 1.875 -6.03125 C 1.789062 -6.113281 1.664062 -6.238281 1.5 -6.40625 C 1.34375 -6.570312 1.226562 -6.738281 1.15625 -6.90625 C 0.976562 -7.363281 0.890625 -7.8125 0.890625 -8.25 C 0.890625 -9.144531 1.195312 -9.882812 1.8125 -10.46875 C 2.4375 -11.050781 3.320312 -11.34375 4.46875 -11.34375 C 5.3125 -11.34375 6.140625 -11.222656 6.953125 -10.984375 L 7.390625 -10.875 L 7.078125 -9.3125 C 5.921875 -9.539062 5.035156 -9.65625 4.421875 -9.65625 C 3.816406 -9.65625 3.394531 -9.554688 3.15625 -9.359375 C 2.925781 -9.160156 2.8125 -8.84375 2.8125 -8.40625 C 2.8125 -7.976562 2.957031 -7.644531 3.25 -7.40625 C 3.539062 -7.164062 3.878906 -6.953125 4.265625 -6.765625 C 4.660156 -6.585938 4.976562 -6.441406 5.21875 -6.328125 C 5.457031 -6.222656 5.632812 -6.140625 5.75 -6.078125 C 5.875 -6.023438 6.039062 -5.9375 6.25 -5.8125 C 6.46875 -5.695312 6.632812 -5.585938 6.75 -5.484375 C 6.863281 -5.378906 7 -5.242188 7.15625 -5.078125 C 7.320312 -4.921875 7.441406 -4.753906 7.515625 -4.578125 C 7.710938 -4.171875 7.8125 -3.726562 7.8125 -3.25 C 7.8125 -2.21875 7.476562 -1.382812 6.8125 -0.75 C 6.144531 -0.113281 5.269531 0.203125 4.1875 0.203125 C 3.632812 0.203125 3.054688 0.125 2.453125 -0.03125 C 1.859375 -0.1875 1.398438 -0.347656 1.078125 -0.515625 L 0.59375 -0.765625 C 0.6875 -1.046875 0.765625 -1.273438 0.828125 -1.453125 C 0.890625 -1.628906 0.941406 -1.773438 0.984375 -1.890625 C 1.023438 -2.015625 1.070312 -2.148438 1.125 -2.296875 C 2.351562 -1.742188 3.476562 -1.46875 4.5 -1.46875 Z M 4.5 -1.46875 "/></g></g></g><g fill="#545454" fill-opacity="1"><g transform="translate(205.54174, 206.647005)"><g><path d="M -0.0625 -11.125 L 7.90625 -11.125 L 7.90625 -9.484375 L 4.8125 -9.53125 L 4.84375 0 L 3 0 L 3.046875 -9.53125 L -0.0625 -9.484375 Z M -0.0625 -11.125 "/></g></g></g><g fill="#545454" fill-opacity="1"><g transform="translate(221.2609, 206.647005)"><g><path d="M 1.546875 0.015625 L 1.609375 -5.109375 L 1.546875 -11.125 L 3.421875 -11.125 L 3.359375 -6.1875 L 3.421875 0.015625 Z M 1.546875 0.015625 "/></g></g></g><g fill="#545454" fill-opacity="1"><g transform="translate(234.033716, 206.647005)"><g><path d="M 1.484375 0 L 1.84375 -11.125 L 4.359375 -11.125 L 6.484375 -4.375 L 6.578125 -4.375 L 8.65625 -11.125 L 11.1875 -11.125 L 11.578125 0 L 9.734375 0 L 9.703125 -9.296875 L 9.609375 -9.296875 L 7.53125 -2.734375 L 5.5625 -2.734375 L 3.421875 -9.296875 L 3.328125 -9.296875 L 3.34375 0 Z M 1.484375 0 "/></g></g></g><g fill="#545454" fill-opacity="1"><g transform="translate(254.897055, 206.647005)"><g><path d="M 5.40625 0.203125 C 4.90625 0.203125 4.445312 0.148438 4.03125 0.046875 C 3.613281 -0.046875 3.210938 -0.222656 2.828125 -0.484375 C 2.453125 -0.742188 2.132812 -1.085938 1.875 -1.515625 C 1.300781 -2.429688 1.015625 -3.789062 1.015625 -5.59375 C 1.015625 -7.851562 1.453125 -9.394531 2.328125 -10.21875 C 2.753906 -10.625 3.210938 -10.910156 3.703125 -11.078125 C 4.191406 -11.253906 4.757812 -11.34375 5.40625 -11.34375 C 6.0625 -11.34375 6.632812 -11.253906 7.125 -11.078125 C 7.613281 -10.910156 8.070312 -10.625 8.5 -10.21875 C 9.375 -9.394531 9.8125 -7.851562 9.8125 -5.59375 C 9.8125 -3.007812 9.207031 -1.304688 8 -0.484375 C 7.3125 -0.0234375 6.445312 0.203125 5.40625 0.203125 Z M 3.828125 -1.859375 C 4.046875 -1.703125 4.273438 -1.59375 4.515625 -1.53125 C 4.753906 -1.476562 5.117188 -1.453125 5.609375 -1.453125 C 6.097656 -1.453125 6.5 -1.539062 6.8125 -1.71875 C 7.507812 -2.113281 7.859375 -3.390625 7.859375 -5.546875 C 7.859375 -6.429688 7.816406 -7.144531 7.734375 -7.6875 C 7.648438 -8.226562 7.5 -8.644531 7.28125 -8.9375 C 7.0625 -9.238281 6.8125 -9.4375 6.53125 -9.53125 C 6.25 -9.632812 5.875 -9.6875 5.40625 -9.6875 C 4.945312 -9.6875 4.578125 -9.632812 4.296875 -9.53125 C 4.023438 -9.4375 3.78125 -9.238281 3.5625 -8.9375 C 3.34375 -8.644531 3.191406 -8.226562 3.109375 -7.6875 C 3.023438 -7.144531 2.984375 -6.472656 2.984375 -5.671875 C 2.984375 -4.867188 3.015625 -4.222656 3.078125 -3.734375 C 3.140625 -3.253906 3.226562 -2.863281 3.34375 -2.5625 C 3.457031 -2.257812 3.617188 -2.023438 3.828125 -1.859375 Z M 3.828125 -1.859375 "/></g></g></g><g fill="#545454" fill-opacity="1"><g transform="translate(273.514789, 206.647005)"><g><path d="M 4.5 -1.46875 C 5.4375 -1.46875 5.90625 -1.976562 5.90625 -3 C 5.90625 -3.425781 5.726562 -3.785156 5.375 -4.078125 C 5.03125 -4.378906 4.546875 -4.671875 3.921875 -4.953125 C 3.304688 -5.234375 2.953125 -5.398438 2.859375 -5.453125 C 2.765625 -5.503906 2.597656 -5.59375 2.359375 -5.71875 C 2.128906 -5.84375 1.96875 -5.945312 1.875 -6.03125 C 1.789062 -6.113281 1.664062 -6.238281 1.5 -6.40625 C 1.34375 -6.570312 1.226562 -6.738281 1.15625 -6.90625 C 0.976562 -7.363281 0.890625 -7.8125 0.890625 -8.25 C 0.890625 -9.144531 1.195312 -9.882812 1.8125 -10.46875 C 2.4375 -11.050781 3.320312 -11.34375 4.46875 -11.34375 C 5.3125 -11.34375 6.140625 -11.222656 6.953125 -10.984375 L 7.390625 -10.875 L 7.078125 -9.3125 C 5.921875 -9.539062 5.035156 -9.65625 4.421875 -9.65625 C 3.816406 -9.65625 3.394531 -9.554688 3.15625 -9.359375 C 2.925781 -9.160156 2.8125 -8.84375 2.8125 -8.40625 C 2.8125 -7.976562 2.957031 -7.644531 3.25 -7.40625 C 3.539062 -7.164062 3.878906 -6.953125 4.265625 -6.765625 C 4.660156 -6.585938 4.976562 -6.441406 5.21875 -6.328125 C 5.457031 -6.222656 5.632812 -6.140625 5.75 -6.078125 C 5.875 -6.023438 6.039062 -5.9375 6.25 -5.8125 C 6.46875 -5.695312 6.632812 -5.585938 6.75 -5.484375 C 6.863281 -5.378906 7 -5.242188 7.15625 -5.078125 C 7.320312 -4.921875 7.441406 -4.753906 7.515625 -4.578125 C 7.710938 -4.171875 7.8125 -3.726562 7.8125 -3.25 C 7.8125 -2.21875 7.476562 -1.382812 6.8125 -0.75 C 6.144531 -0.113281 5.269531 0.203125 4.1875 0.203125 C 3.632812 0.203125 3.054688 0.125 2.453125 -0.03125 C 1.859375 -0.1875 1.398438 -0.347656 1.078125 -0.515625 L 0.59375 -0.765625 C 0.6875 -1.046875 0.765625 -1.273438 0.828125 -1.453125 C 0.890625 -1.628906 0.941406 -1.773438 0.984375 -1.890625 C 1.023438 -2.015625 1.070312 -2.148438 1.125 -2.296875 C 2.351562 -1.742188 3.476562 -1.46875 4.5 -1.46875 Z M 4.5 -1.46875 "/></g></g></g></svg>