<svg xmlns="http://www.w3.org/2000/svg" xmlns:xlink="http://www.w3.org/1999/xlink" width="273" zoomAndPan="magnify" viewBox="0 0 204.75 65.249999" height="87" preserveAspectRatio="xMidYMid meet" version="1.0"><defs><g/><clipPath id="id1"><path d="M 1.039062 3 L 76.761719 3 L 76.761719 62 L 1.039062 62 Z M 1.039062 3 " clip-rule="nonzero"/></clipPath></defs><g clip-path="url(#id1)"><path fill="#f4f7ff" d="M 37.363281 52.902344 Z M 21.960938 61.566406 L 25.148438 50.683594 L 27.378906 47.722656 L 28.226562 48.144531 L 27.164062 51.632812 L 27.804688 51.949219 L 30.351562 49.203125 L 31.09375 49.625 L 29.714844 53.429688 L 21.960938 61.460938 Z M 32.792969 55.015625 L 37.253906 52.902344 C 38.742188 53.746094 40.546875 54.277344 42.351562 54.277344 C 44.902344 54.277344 47.238281 53.324219 49.042969 51.84375 C 52.015625 54.382812 55.839844 55.964844 59.984375 55.964844 C 69.117188 55.964844 76.550781 48.570312 76.550781 39.480469 C 76.550781 30.496094 69.328125 23.203125 60.40625 22.992188 C 60.621094 21.832031 60.832031 20.667969 60.832031 19.507812 C 60.832031 10.417969 53.398438 3.019531 44.265625 3.019531 C 36.40625 3.019531 29.820312 8.410156 28.121094 15.703125 C 26.316406 14.117188 23.875 13.058594 21.21875 13.058594 C 15.484375 13.058594 10.808594 17.710938 10.808594 23.417969 C 10.808594 23.945312 10.808594 24.367188 10.917969 24.894531 C 5.074219 26.585938 0.828125 31.871094 0.828125 38.210938 C 0.828125 45.820312 7.09375 52.054688 14.738281 52.054688 L 23.449219 52.054688 L 21.855469 61.566406 L 30.671875 54.171875 L 31.414062 52.054688 L 31.625 52.054688 Z M 29.289062 36.097656 C 32.371094 28.910156 36.40625 22.570312 45.328125 20.773438 C 47.875 29.015625 45.21875 35.992188 39.804688 42.332031 C 40.546875 43.8125 41.183594 45.398438 40.972656 46.878906 C 40.652344 48.886719 39.167969 49.835938 37.679688 51.105469 L 36.300781 52.269531 L 32.792969 55.121094 L 32.792969 48.144531 L 31.09375 49.203125 L 27.910156 47.300781 L 27.910156 45.1875 L 21.644531 48.886719 L 22.8125 41.488281 C 23.128906 39.480469 23.234375 38.421875 25.148438 37.261719 C 26.527344 36.414062 28.015625 36.308594 29.503906 36.203125 Z M 29.289062 36.097656 " fill-opacity="1" fill-rule="evenodd"/></g><path fill="#ffde59" d="M 44.476562 22.570312 L 43.308594 24.472656 C 44.6875 29.125 43.097656 34.511719 39.484375 40.429688 C 43.839844 35.042969 46.070312 29.335938 44.371094 22.464844 Z M 44.476562 22.570312 " fill-opacity="1" fill-rule="evenodd"/><g fill="#ffffff" fill-opacity="1"><g transform="translate(79.595893, 48.256314)"><g><path d="M 1.003906 -15.65625 L 1.003906 0 L 4.816406 0 L 4.816406 -6.34375 L 9.835938 -6.34375 L 9.835938 -9.636719 L 4.816406 -9.636719 L 4.816406 -12.367188 L 10.839844 -12.367188 L 10.839844 -15.65625 Z M 1.003906 -15.65625 "/></g></g></g><g fill="#ffffff" fill-opacity="1"><g transform="translate(90.833987, 48.256314)"><g><path d="M 7.226562 0 L 10.558594 0 L 10.359375 -3.011719 L 10.359375 -6.824219 C 10.359375 -9.453125 9.253906 -10.921875 5.621094 -10.921875 C 2.007812 -10.921875 0.902344 -9.234375 0.902344 -7.308594 L 0.902344 -7.125 L 4.375 -7.125 C 4.375 -7.628906 4.617188 -8.148438 5.519531 -8.148438 C 6.324219 -8.148438 6.625 -7.789062 6.664062 -7.027344 L 4.417969 -6.664062 C 2.046875 -6.304688 0.5 -5.519531 0.5 -3.210938 L 0.5 -3.011719 C 0.5 -1.304688 1.304688 0.28125 3.8125 0.28125 C 5.21875 0.28125 6.28125 -0.222656 7.027344 -1.003906 Z M 5.21875 -2.691406 C 4.457031 -2.691406 4.175781 -3.132812 4.175781 -3.554688 L 4.175781 -3.671875 C 4.175781 -4.15625 4.355469 -4.535156 5.21875 -4.675781 L 6.664062 -4.898438 L 6.664062 -3.273438 C 6.363281 -2.992188 5.839844 -2.691406 5.21875 -2.691406 Z M 5.21875 -2.691406 "/></g></g></g><g fill="#ffffff" fill-opacity="1"><g transform="translate(102.07208, 48.256314)"><g><path d="M 4.175781 -4.917969 L 4.175781 -5.722656 C 4.175781 -7.027344 4.515625 -7.75 5.5 -7.75 C 6.222656 -7.75 6.664062 -7.347656 6.664062 -6.421875 L 10.136719 -6.421875 L 10.136719 -6.90625 C 10.136719 -9.433594 8.511719 -10.921875 5.421875 -10.921875 C 1.988281 -10.921875 0.5 -8.832031 0.5 -5.722656 L 0.5 -4.917969 C 0.5 -1.808594 1.988281 0.28125 5.421875 0.28125 C 8.511719 0.28125 10.136719 -1.203125 10.136719 -3.53125 L 10.136719 -4.015625 L 6.664062 -4.015625 C 6.664062 -3.3125 6.222656 -2.890625 5.5 -2.890625 C 4.515625 -2.890625 4.175781 -3.613281 4.175781 -4.917969 Z M 4.175781 -4.917969 "/></g></g></g><g fill="#ffffff" fill-opacity="1"><g transform="translate(112.667997, 48.256314)"><g><path d="M 0.964844 0 L 4.65625 0 L 4.65625 -10.640625 L 0.964844 -10.640625 Z M 4.71875 -15.65625 L 0.902344 -15.65625 L 0.902344 -11.84375 L 4.71875 -11.84375 Z M 4.71875 -15.65625 "/></g></g></g><g fill="#ffffff" fill-opacity="1"><g transform="translate(118.287044, 48.256314)"><g><path d="M 0.964844 0 L 4.65625 0 L 4.65625 -16.058594 L 0.964844 -16.058594 Z M 0.964844 0 "/></g></g></g><g fill="#ffffff" fill-opacity="1"><g transform="translate(123.90609, 48.256314)"><g><path d="M 0.964844 0 L 4.65625 0 L 4.65625 -10.640625 L 0.964844 -10.640625 Z M 4.71875 -15.65625 L 0.902344 -15.65625 L 0.902344 -11.84375 L 4.71875 -11.84375 Z M 4.71875 -15.65625 "/></g></g></g><g fill="#ffffff" fill-opacity="1"><g transform="translate(129.525137, 48.256314)"><g><path d="M 5.601562 -10.640625 L 5.601562 -13.648438 L 1.90625 -13.648438 L 1.90625 -10.640625 L 0.300781 -10.640625 L 0.300781 -7.425781 L 1.90625 -7.425781 L 1.90625 -3.914062 C 1.90625 -0.804688 3.613281 0.28125 6.164062 0.28125 C 7.167969 0.28125 7.769531 0.101562 7.949219 0 L 7.949219 -3.011719 C 7.847656 -2.972656 7.347656 -2.890625 7.027344 -2.890625 C 6.183594 -2.890625 5.601562 -3.113281 5.601562 -4.316406 L 5.601562 -7.425781 L 8.148438 -7.425781 L 8.148438 -10.640625 Z M 5.601562 -10.640625 "/></g></g></g><g fill="#ffffff" fill-opacity="1"><g transform="translate(138.355065, 48.256314)"><g><path d="M 5.722656 -4.417969 L 4.015625 -10.640625 L 0 -10.640625 L 3.714844 -0.601562 L 1.988281 4.015625 L 6.402344 4.015625 L 7.726562 -0.601562 L 11.441406 -10.640625 L 7.425781 -10.640625 Z M 5.722656 -4.417969 "/></g></g></g><g fill="#ffde59" fill-opacity="1"><g transform="translate(149.792845, 48.256314)"><g><path d="M 4.71875 -3.8125 L 0.902344 -3.8125 L 0.902344 0 L 4.71875 0 Z M 4.71875 -3.8125 "/></g></g></g><g fill="#ffde59" fill-opacity="1"><g transform="translate(155.411892, 48.256314)"><g><path d="M 7.828125 -6.824219 L 9.035156 0 L 13.648438 0 L 15.355469 -10.640625 L 11.742188 -10.640625 L 11.242188 -4.015625 L 10.035156 -10.640625 L 5.621094 -10.640625 L 4.417969 -4.015625 L 3.914062 -10.640625 L 0.300781 -10.640625 L 2.007812 0 L 6.625 0 Z M 7.828125 -6.824219 "/></g></g></g><g fill="#ffde59" fill-opacity="1"><g transform="translate(171.064941, 48.256314)"><g><path d="M 10.738281 -4.015625 L 10.738281 -5.621094 C 10.738281 -8.730469 9.132812 -10.921875 5.699219 -10.921875 C 2.269531 -10.921875 0.5 -8.730469 0.5 -5.621094 L 0.5 -5.019531 C 0.5 -1.90625 2.1875 0.28125 5.820312 0.28125 C 8.914062 0.28125 10.738281 -1.203125 10.738281 -3.332031 L 10.738281 -3.414062 L 7.265625 -3.414062 C 7.265625 -2.910156 6.644531 -2.488281 5.839844 -2.488281 C 4.917969 -2.488281 4.316406 -2.808594 4.195312 -4.015625 Z M 5.621094 -8.148438 C 6.484375 -8.148438 6.945312 -7.75 7.046875 -6.625 L 4.195312 -6.625 C 4.296875 -7.75 4.757812 -8.148438 5.621094 -8.148438 Z M 5.621094 -8.148438 "/></g></g></g><g fill="#ffde59" fill-opacity="1"><g transform="translate(182.303035, 48.256314)"><g><path d="M 4.675781 -16.058594 L 0.984375 -16.058594 L 0.984375 -3.011719 L 0.78125 0 L 4.113281 0 L 4.335938 -1.222656 C 4.9375 -0.339844 5.882812 0.28125 7.328125 0.28125 C 10.238281 0.28125 11.242188 -1.808594 11.242188 -4.917969 L 11.242188 -5.722656 C 11.242188 -8.832031 10.238281 -10.921875 7.328125 -10.921875 C 6.121094 -10.921875 5.28125 -10.480469 4.675781 -9.835938 Z M 4.675781 -6.925781 C 4.878906 -7.226562 5.421875 -7.75 6.222656 -7.75 C 7.226562 -7.75 7.566406 -7.027344 7.566406 -5.722656 L 7.566406 -4.917969 C 7.566406 -3.613281 7.226562 -2.890625 6.222656 -2.890625 C 5.421875 -2.890625 4.878906 -3.414062 4.675781 -3.714844 Z M 4.675781 -6.925781 "/></g></g></g></svg>