<svg xmlns="http://www.w3.org/2000/svg" xmlns:xlink="http://www.w3.org/1999/xlink" width="273" zoomAndPan="magnify" viewBox="0 0 204.75 65.249999" height="87" preserveAspectRatio="xMidYMid meet" version="1.0"><defs><g/><clipPath id="id1"><path d="M 10.109375 5 L 78.40625 5 L 78.40625 59 L 10.109375 59 Z M 10.109375 5 " clip-rule="nonzero"/></clipPath></defs><g clip-path="url(#id1)"><path fill="#5991fb" d="M 42.867188 50.925781 Z M 28.976562 58.796875 L 31.851562 48.914062 L 33.863281 46.226562 L 34.628906 46.609375 L 33.671875 49.777344 L 34.246094 50.0625 L 36.546875 47.570312 L 37.214844 47.953125 L 35.972656 51.40625 L 28.976562 58.699219 Z M 38.75 52.847656 L 42.773438 50.925781 C 44.113281 51.695312 45.742188 52.175781 47.371094 52.175781 C 49.667969 52.175781 51.777344 51.3125 53.40625 49.96875 C 56.085938 52.269531 59.535156 53.710938 63.273438 53.710938 C 71.507812 53.710938 78.214844 46.992188 78.214844 38.738281 C 78.214844 30.582031 71.703125 23.960938 63.65625 23.769531 C 63.847656 22.714844 64.039062 21.65625 64.039062 20.601562 C 64.039062 12.347656 57.332031 5.628906 49.09375 5.628906 C 42.007812 5.628906 36.066406 10.523438 34.535156 17.148438 C 32.90625 15.707031 30.703125 14.746094 28.308594 14.746094 C 23.136719 14.746094 18.921875 18.96875 18.921875 24.152344 C 18.921875 24.632812 18.921875 25.015625 19.015625 25.496094 C 13.746094 27.03125 9.914062 31.828125 9.914062 37.589844 C 9.914062 44.496094 15.566406 50.160156 22.464844 50.160156 L 30.320312 50.160156 L 28.882812 58.796875 L 36.832031 52.078125 L 37.503906 50.160156 L 37.695312 50.160156 Z M 35.589844 35.667969 C 38.367188 29.144531 42.007812 23.386719 50.050781 21.753906 C 52.351562 29.238281 49.957031 35.574219 45.070312 41.332031 C 45.742188 42.675781 46.316406 44.113281 46.125 45.457031 C 45.835938 47.28125 44.496094 48.144531 43.15625 49.296875 L 41.910156 50.351562 L 38.75 52.941406 L 38.75 46.609375 L 37.214844 47.570312 L 34.34375 45.839844 L 34.34375 43.921875 L 28.691406 47.28125 L 29.746094 40.5625 C 30.03125 38.738281 30.128906 37.78125 31.851562 36.722656 C 33.097656 35.957031 34.4375 35.859375 35.78125 35.765625 Z M 35.589844 35.667969 " fill-opacity="1" fill-rule="evenodd"/></g><path fill="#ffde59" d="M 49.285156 23.386719 L 48.230469 25.113281 C 49.476562 29.335938 48.039062 34.230469 44.785156 39.601562 C 48.710938 34.707031 50.722656 29.527344 49.191406 23.289062 Z M 49.285156 23.386719 " fill-opacity="1" fill-rule="evenodd"/><g fill="#5991fb" fill-opacity="1"><g transform="translate(81.790119, 47.604656)"><g><path d="M 0.960938 -15.019531 L 0.960938 0 L 4.621094 0 L 4.621094 -6.085938 L 9.433594 -6.085938 L 9.433594 -9.242188 L 4.621094 -9.242188 L 4.621094 -11.859375 L 10.398438 -11.859375 L 10.398438 -15.019531 Z M 0.960938 -15.019531 "/></g></g></g><g fill="#5991fb" fill-opacity="1"><g transform="translate(92.569429, 47.604656)"><g><path d="M 6.929688 0 L 10.128906 0 L 9.933594 -2.886719 L 9.933594 -6.546875 C 9.933594 -9.070312 8.875 -10.472656 5.390625 -10.472656 C 1.925781 -10.472656 0.867188 -8.855469 0.867188 -7.007812 L 0.867188 -6.835938 L 4.199219 -6.835938 C 4.199219 -7.316406 4.429688 -7.816406 5.296875 -7.816406 C 6.066406 -7.816406 6.355469 -7.472656 6.390625 -6.738281 L 4.234375 -6.390625 C 1.964844 -6.046875 0.480469 -5.296875 0.480469 -3.082031 L 0.480469 -2.886719 C 0.480469 -1.25 1.25 0.269531 3.660156 0.269531 C 5.007812 0.269531 6.027344 -0.210938 6.738281 -0.960938 Z M 5.007812 -2.582031 C 4.273438 -2.582031 4.003906 -3.003906 4.003906 -3.40625 L 4.003906 -3.523438 C 4.003906 -3.984375 4.179688 -4.351562 5.007812 -4.484375 L 6.390625 -4.699219 L 6.390625 -3.136719 C 6.105469 -2.867188 5.601562 -2.582031 5.007812 -2.582031 Z M 5.007812 -2.582031 "/></g></g></g><g fill="#5991fb" fill-opacity="1"><g transform="translate(103.348739, 47.604656)"><g><path d="M 4.003906 -4.71875 L 4.003906 -5.488281 C 4.003906 -6.738281 4.332031 -7.433594 5.277344 -7.433594 C 5.96875 -7.433594 6.390625 -7.046875 6.390625 -6.160156 L 9.722656 -6.160156 L 9.722656 -6.625 C 9.722656 -9.050781 8.164062 -10.472656 5.199219 -10.472656 C 1.90625 -10.472656 0.480469 -8.472656 0.480469 -5.488281 L 0.480469 -4.71875 C 0.480469 -1.734375 1.90625 0.269531 5.199219 0.269531 C 8.164062 0.269531 9.722656 -1.15625 9.722656 -3.390625 L 9.722656 -3.851562 L 6.390625 -3.851562 C 6.390625 -3.175781 5.96875 -2.773438 5.277344 -2.773438 C 4.332031 -2.773438 4.003906 -3.464844 4.003906 -4.71875 Z M 4.003906 -4.71875 "/></g></g></g><g fill="#5991fb" fill-opacity="1"><g transform="translate(113.512088, 47.604656)"><g><path d="M 0.925781 0 L 4.46875 0 L 4.46875 -10.203125 L 0.925781 -10.203125 Z M 4.523438 -15.019531 L 0.867188 -15.019531 L 0.867188 -11.359375 L 4.523438 -11.359375 Z M 4.523438 -15.019531 "/></g></g></g><g fill="#5991fb" fill-opacity="1"><g transform="translate(118.901743, 47.604656)"><g><path d="M 0.925781 0 L 4.46875 0 L 4.46875 -15.402344 L 0.925781 -15.402344 Z M 0.925781 0 "/></g></g></g><g fill="#5991fb" fill-opacity="1"><g transform="translate(124.291398, 47.604656)"><g><path d="M 0.925781 0 L 4.46875 0 L 4.46875 -10.203125 L 0.925781 -10.203125 Z M 4.523438 -15.019531 L 0.867188 -15.019531 L 0.867188 -11.359375 L 4.523438 -11.359375 Z M 4.523438 -15.019531 "/></g></g></g><g fill="#5991fb" fill-opacity="1"><g transform="translate(129.681053, 47.604656)"><g><path d="M 5.371094 -10.203125 L 5.371094 -13.09375 L 1.828125 -13.09375 L 1.828125 -10.203125 L 0.289062 -10.203125 L 0.289062 -7.125 L 1.828125 -7.125 L 1.828125 -3.753906 C 1.828125 -0.769531 3.464844 0.269531 5.910156 0.269531 C 6.875 0.269531 7.453125 0.0976562 7.625 0 L 7.625 -2.886719 C 7.527344 -2.851562 7.046875 -2.773438 6.738281 -2.773438 C 5.929688 -2.773438 5.371094 -2.984375 5.371094 -4.140625 L 5.371094 -7.125 L 7.816406 -7.125 L 7.816406 -10.203125 Z M 5.371094 -10.203125 "/></g></g></g><g fill="#5991fb" fill-opacity="1"><g transform="translate(138.150508, 47.604656)"><g><path d="M 5.488281 -4.234375 L 3.851562 -10.203125 L 0 -10.203125 L 3.5625 -0.578125 L 1.90625 3.851562 L 6.140625 3.851562 L 7.414062 -0.578125 L 10.976562 -10.203125 L 7.125 -10.203125 Z M 5.488281 -4.234375 "/></g></g></g><g fill="#ffde59" fill-opacity="1"><g transform="translate(149.121353, 47.604656)"><g><path d="M 4.523438 -3.660156 L 0.867188 -3.660156 L 0.867188 0 L 4.523438 0 Z M 4.523438 -3.660156 "/></g></g></g><g fill="#ffde59" fill-opacity="1"><g transform="translate(154.511007, 47.604656)"><g><path d="M 7.507812 -6.546875 L 8.664062 0 L 13.09375 0 L 14.730469 -10.203125 L 11.265625 -10.203125 L 10.78125 -3.851562 L 9.628906 -10.203125 L 5.390625 -10.203125 L 4.234375 -3.851562 L 3.753906 -10.203125 L 0.289062 -10.203125 L 1.925781 0 L 6.355469 0 Z M 7.507812 -6.546875 "/></g></g></g><g fill="#ffde59" fill-opacity="1"><g transform="translate(169.525037, 47.604656)"><g><path d="M 10.300781 -3.851562 L 10.300781 -5.390625 C 10.300781 -8.375 8.761719 -10.472656 5.46875 -10.472656 C 2.175781 -10.472656 0.480469 -8.375 0.480469 -5.390625 L 0.480469 -4.8125 C 0.480469 -1.828125 2.097656 0.269531 5.582031 0.269531 C 8.550781 0.269531 10.300781 -1.15625 10.300781 -3.195312 L 10.300781 -3.273438 L 6.96875 -3.273438 C 6.96875 -2.792969 6.375 -2.386719 5.601562 -2.386719 C 4.71875 -2.386719 4.140625 -2.695312 4.023438 -3.851562 Z M 5.390625 -7.816406 C 6.21875 -7.816406 6.660156 -7.433594 6.757812 -6.355469 L 4.023438 -6.355469 C 4.121094 -7.433594 4.5625 -7.816406 5.390625 -7.816406 Z M 5.390625 -7.816406 "/></g></g></g><g fill="#ffde59" fill-opacity="1"><g transform="translate(180.304347, 47.604656)"><g><path d="M 4.484375 -15.402344 L 0.945312 -15.402344 L 0.945312 -2.886719 L 0.75 0 L 3.945312 0 L 4.160156 -1.175781 C 4.738281 -0.328125 5.640625 0.269531 7.027344 0.269531 C 9.820312 0.269531 10.78125 -1.734375 10.78125 -4.71875 L 10.78125 -5.488281 C 10.78125 -8.472656 9.820312 -10.472656 7.027344 -10.472656 C 5.871094 -10.472656 5.0625 -10.050781 4.484375 -9.433594 Z M 4.484375 -6.644531 C 4.679688 -6.929688 5.199219 -7.433594 5.96875 -7.433594 C 6.929688 -7.433594 7.257812 -6.738281 7.257812 -5.488281 L 7.257812 -4.71875 C 7.257812 -3.464844 6.929688 -2.773438 5.96875 -2.773438 C 5.199219 -2.773438 4.679688 -3.273438 4.484375 -3.5625 Z M 4.484375 -6.644531 "/></g></g></g></svg>