<svg xmlns="http://www.w3.org/2000/svg" xmlns:xlink="http://www.w3.org/1999/xlink" width="491" zoomAndPan="magnify" viewBox="0 0 368.25 89.249998" height="119" preserveAspectRatio="xMidYMid meet" version="1.0"><defs><g/><clipPath id="6ac6410042"><path d="M 1.429688 0.0898438 L 102.582031 0.0898438 L 102.582031 69.257812 L 1.429688 69.257812 Z M 1.429688 0.0898438 " clip-rule="nonzero"/></clipPath></defs><g clip-path="url(#6ac6410042)"><path fill="#ffffff" d="M 79.582031 60.113281 L 79.582031 26.175781 L 78.507812 25.8125 L 78.507812 59.847656 C 77.777344 59.664062 77.046875 59.503906 76.296875 59.339844 L 76.296875 25.039062 L 75.21875 24.675781 L 75.21875 59.117188 C 74.492188 58.957031 73.761719 58.8125 73.007812 58.671875 L 73.007812 23.90625 L 71.933594 23.539062 L 71.933594 58.488281 C 71 58.328125 70.070312 58.164062 69.136719 58.023438 L 69.136719 16.015625 L 61.183594 21.632812 L 61.183594 57.109375 C 60.046875 57.027344 58.890625 56.945312 57.734375 56.886719 L 57.734375 12.382812 L 56.660156 12.019531 L 56.660156 56.84375 C 55.929688 56.824219 55.199219 56.804688 54.449219 56.785156 L 54.449219 11.265625 L 53.375 10.902344 L 53.375 56.785156 C 52.949219 56.785156 52.523438 56.785156 52.097656 56.785156 C 50.269531 56.785156 48.464844 56.824219 46.660156 56.90625 L 46.660156 0.0898438 L 36.984375 7.433594 L 36.984375 25.445312 L 41.125 27.269531 L 40.921875 57.292969 C 40.292969 57.351562 39.640625 57.414062 39.011719 57.496094 L 39.011719 33.703125 L 37.9375 33.277344 L 37.9375 57.617188 C 37.207031 57.71875 36.457031 57.800781 35.726562 57.921875 L 35.726562 32.402344 L 34.652344 31.976562 L 34.652344 58.082031 C 33.921875 58.203125 33.171875 58.328125 32.441406 58.449219 L 32.441406 31.085938 L 31.367188 30.660156 L 31.367188 58.628906 C 30.515625 58.792969 29.664062 58.957031 28.832031 59.136719 L 28.832031 22.625 L 20.433594 28.550781 L 20.433594 61.269531 C 13.660156 63.316406 7.226562 66.015625 1.449219 69.257812 C 16.398438 64.371094 33.699219 61.570312 52.15625 61.570312 C 70.617188 61.570312 87.917969 64.371094 102.867188 69.257812 C 95.929688 65.363281 88.082031 62.242188 79.582031 60.113281 Z M 79.582031 60.113281 " fill-opacity="1" fill-rule="nonzero"/></g><path fill="#ffffff" d="M 51.222656 10.132812 L 50.167969 9.765625 L 50.167969 56.765625 L 51.222656 56.765625 Z M 51.222656 10.132812 " fill-opacity="1" fill-rule="nonzero"/><g fill="#ffffff" fill-opacity="1"><g transform="translate(104.106037, 66.314932)"><g><path d="M 27.152344 -0.609375 C 25.902344 -0.796875 24.761719 -0.53125 23.964844 -2.203125 L 14.8125 -24 C 13.480469 -24.265625 13.253906 -23.773438 12.761719 -22.597656 C 9.949219 -15.875 7.140625 -9.152344 4.328125 -2.429688 C 3.53125 -0.492188 2.355469 -0.796875 1.0625 -0.609375 C 0.683594 -0.53125 0.722656 -0.152344 1.101562 -0.152344 C 2.089844 -0.152344 2.773438 -0.152344 3.570312 -0.152344 L 3.570312 -0.191406 L 4.441406 -0.191406 L 4.441406 -0.152344 C 5.277344 -0.152344 6.796875 -0.152344 7.785156 -0.152344 C 8.164062 -0.152344 8.203125 -0.53125 7.824219 -0.609375 C 6.570312 -0.796875 4.632812 -0.53125 5.316406 -2.203125 L 6.761719 -5.695312 L 19.332031 -5.695312 C 19.824219 -4.519531 20.316406 -3.378906 20.773438 -2.203125 C 21.457031 -0.53125 20.164062 -0.796875 18.914062 -0.609375 C 18.53125 -0.53125 18.53125 -0.152344 18.949219 -0.152344 C 19.9375 -0.152344 20.8125 -0.152344 21.648438 -0.152344 L 21.648438 -0.191406 L 24.609375 -0.191406 L 24.609375 -0.152344 C 25.445312 -0.152344 26.128906 -0.152344 27.117188 -0.152344 C 27.496094 -0.152344 27.496094 -0.53125 27.152344 -0.609375 Z M 7.140625 -6.53125 L 12.644531 -19.632812 C 12.875 -20.203125 13.140625 -20.203125 13.40625 -19.632812 C 15.230469 -15.265625 17.089844 -10.898438 18.949219 -6.53125 Z M 7.140625 -6.53125 "/></g></g></g><g fill="#ffffff" fill-opacity="1"><g transform="translate(132.278246, 66.314932)"><g><path d="M 25.597656 -10.027344 L 18.039062 -10.027344 C 17.621094 -10.027344 17.621094 -9.457031 18 -9.378906 C 19.253906 -9.191406 20.8125 -9.304688 20.8125 -7.292969 C 20.8125 -6.304688 20.8125 -5.429688 20.8125 -3.757812 C 20.8125 -3 20.507812 -2.542969 19.75 -2.011719 C 18.457031 -1.214844 16.597656 -0.609375 13.824219 -0.609375 C 0.457031 -0.609375 0.417969 -23.546875 13.824219 -23.546875 C 15.609375 -23.546875 17.089844 -23.433594 18.078125 -22.9375 C 20.316406 -21.800781 19.9375 -20.582031 20.46875 -19.632812 C 20.886719 -18.835938 21.457031 -18.53125 21.988281 -18.53125 C 23.089844 -18.53125 24.039062 -19.898438 22.824219 -21.34375 C 22.140625 -22.140625 20.699219 -22.9375 19.558594 -23.433594 C 19.332031 -23.546875 19.140625 -23.621094 18.988281 -23.660156 L 18.949219 -23.660156 C 17.46875 -24.191406 15.761719 -24.535156 13.824219 -24.535156 C -3.570312 -24.535156 -3.570312 0.339844 13.824219 0.339844 C 19.101562 0.339844 20.507812 -1.292969 23.28125 -1.292969 C 23.355469 -1.292969 23.46875 -1.367188 23.46875 -1.480469 L 23.46875 -7.0625 C 23.46875 -9.078125 24.382812 -9.191406 25.632812 -9.378906 C 26.015625 -9.457031 26.015625 -10.027344 25.597656 -10.027344 Z M 25.597656 -10.027344 "/></g></g></g><g fill="#ffffff" fill-opacity="1"><g transform="translate(158.969709, 66.314932)"><g><path d="M 8.621094 -0.796875 C 7.328125 -1.023438 6.226562 -0.722656 6.226562 -2.695312 L 6.226562 -21.457031 C 6.226562 -23.46875 7.328125 -23.128906 8.621094 -23.355469 C 9 -23.433594 8.960938 -24 8.582031 -24 L 1.101562 -24 C 0.683594 -24 0.683594 -23.433594 1.0625 -23.355469 C 2.316406 -23.128906 3.417969 -23.46875 3.417969 -21.457031 L 3.417969 -2.695312 C 3.417969 -0.722656 2.316406 -1.023438 1.0625 -0.796875 C 0.683594 -0.757812 0.683594 -0.191406 1.101562 -0.191406 L 8.582031 -0.191406 C 8.960938 -0.191406 9 -0.757812 8.621094 -0.796875 Z M 8.621094 -0.796875 "/></g></g></g><g fill="#ffffff" fill-opacity="1"><g transform="translate(168.651532, 66.314932)"><g><path d="M 20.242188 -5.011719 C 19.671875 -2.542969 18.722656 -1.023438 14.773438 -1.023438 L 7.632812 -1.023438 C 6.835938 -1.101562 6.226562 -1.480469 6.226562 -2.621094 L 6.226562 -21.457031 C 6.226562 -23.46875 7.328125 -23.128906 8.621094 -23.355469 C 9 -23.433594 8.960938 -24 8.582031 -24 L 1.101562 -24 C 0.683594 -24 0.683594 -23.433594 1.0625 -23.355469 C 2.316406 -23.128906 3.417969 -23.46875 3.417969 -21.457031 L 3.417969 -2.695312 C 3.417969 -0.722656 2.316406 -1.023438 1.0625 -0.796875 C 0.683594 -0.757812 0.683594 -0.191406 1.101562 -0.191406 L 20.433594 -0.191406 C 20.546875 -0.191406 20.699219 -0.226562 20.699219 -0.378906 L 20.886719 -4.976562 C 20.886719 -5.316406 20.316406 -5.355469 20.242188 -5.011719 Z M 20.242188 -5.011719 "/></g></g></g><g fill="#ffffff" fill-opacity="1"><g transform="translate(191.052626, 66.314932)"><g><path d="M 8.621094 -0.796875 C 7.328125 -1.023438 6.226562 -0.722656 6.226562 -2.695312 L 6.226562 -21.457031 C 6.226562 -23.46875 7.328125 -23.128906 8.621094 -23.355469 C 9 -23.433594 8.960938 -24 8.582031 -24 L 1.101562 -24 C 0.683594 -24 0.683594 -23.433594 1.0625 -23.355469 C 2.316406 -23.128906 3.417969 -23.46875 3.417969 -21.457031 L 3.417969 -2.695312 C 3.417969 -0.722656 2.316406 -1.023438 1.0625 -0.796875 C 0.683594 -0.757812 0.683594 -0.191406 1.101562 -0.191406 L 8.582031 -0.191406 C 8.960938 -0.191406 9 -0.757812 8.621094 -0.796875 Z M 8.621094 -0.796875 "/></g></g></g><g fill="#ffffff" fill-opacity="1"><g transform="translate(200.73445, 66.314932)"><g><path d="M 20.128906 -4.824219 C 19.558594 -2.355469 18.796875 -0.835938 14.847656 -0.835938 L 4.859375 -0.835938 C 4.328125 -0.835938 4.253906 -1.101562 4.480469 -1.519531 L 20.847656 -23.851562 L 1.519531 -23.851562 C 1.367188 -23.851562 1.253906 -23.8125 1.214844 -23.660156 L 1.023438 -19.027344 C 1.023438 -18.722656 1.59375 -18.648438 1.671875 -18.988281 C 2.242188 -21.457031 3 -22.976562 6.949219 -22.976562 L 16.9375 -22.976562 C 11.886719 -15.722656 5.847656 -8.582031 0.910156 -1.328125 C 0.644531 -0.875 0.683594 -0.0742188 1.519531 0 L 1.519531 0.0390625 L 20.28125 0.0390625 C 20.433594 0.0390625 20.546875 0 20.582031 -0.152344 L 20.773438 -4.785156 C 20.773438 -5.125 20.203125 -5.164062 20.128906 -4.824219 Z M 20.128906 -4.824219 "/></g></g></g><g fill="#ffffff" fill-opacity="1"><g transform="translate(223.097573, 66.314932)"><g><path d="M 27.152344 -0.609375 C 25.902344 -0.796875 24.761719 -0.53125 23.964844 -2.203125 L 14.8125 -24 C 13.480469 -24.265625 13.253906 -23.773438 12.761719 -22.597656 C 9.949219 -15.875 7.140625 -9.152344 4.328125 -2.429688 C 3.53125 -0.492188 2.355469 -0.796875 1.0625 -0.609375 C 0.683594 -0.53125 0.722656 -0.152344 1.101562 -0.152344 C 2.089844 -0.152344 2.773438 -0.152344 3.570312 -0.152344 L 3.570312 -0.191406 L 4.441406 -0.191406 L 4.441406 -0.152344 C 5.277344 -0.152344 6.796875 -0.152344 7.785156 -0.152344 C 8.164062 -0.152344 8.203125 -0.53125 7.824219 -0.609375 C 6.570312 -0.796875 4.632812 -0.53125 5.316406 -2.203125 L 6.761719 -5.695312 L 19.332031 -5.695312 C 19.824219 -4.519531 20.316406 -3.378906 20.773438 -2.203125 C 21.457031 -0.53125 20.164062 -0.796875 18.914062 -0.609375 C 18.53125 -0.53125 18.53125 -0.152344 18.949219 -0.152344 C 19.9375 -0.152344 20.8125 -0.152344 21.648438 -0.152344 L 21.648438 -0.191406 L 24.609375 -0.191406 L 24.609375 -0.152344 C 25.445312 -0.152344 26.128906 -0.152344 27.117188 -0.152344 C 27.496094 -0.152344 27.496094 -0.53125 27.152344 -0.609375 Z M 7.140625 -6.53125 L 12.644531 -19.632812 C 12.875 -20.203125 13.140625 -20.203125 13.40625 -19.632812 C 15.230469 -15.265625 17.089844 -10.898438 18.949219 -6.53125 Z M 7.140625 -6.53125 "/></g></g></g><g fill="#ffffff" fill-opacity="1"><g transform="translate(251.269782, 66.314932)"><g/></g></g><g fill="#ffffff" fill-opacity="1"><g transform="translate(259.584757, 66.314932)"><g><path d="M 22.40625 -4.671875 C 21.039062 -2.695312 19.101562 -0.609375 13.863281 -0.609375 C 0.570312 -0.609375 0.875 -23.546875 13.863281 -23.546875 C 15.113281 -23.546875 16.710938 -23.433594 17.925781 -23.015625 C 20.394531 -21.875 19.976562 -20.621094 20.46875 -19.632812 C 20.886719 -18.835938 21.496094 -18.53125 22.027344 -18.53125 C 23.128906 -18.53125 24.078125 -19.898438 22.863281 -21.34375 C 22.179688 -22.140625 20.050781 -23.433594 18.988281 -23.660156 C 17.507812 -24.191406 15.796875 -24.535156 13.863281 -24.535156 C -3.570312 -24.535156 -3.570312 0.339844 13.863281 0.339844 C 18.457031 0.339844 21.417969 -1.40625 23.582031 -3.949219 C 24.117188 -4.558594 23.699219 -5.164062 23.167969 -5.164062 C 22.9375 -5.164062 22.632812 -5.011719 22.40625 -4.671875 Z M 22.40625 -4.671875 "/></g></g></g><g fill="#ffffff" fill-opacity="1"><g transform="translate(284.18799, 66.314932)"><g><path d="M 22.9375 -8.394531 C 22.253906 -8.394531 21.722656 -7.9375 21.722656 -7.214844 C 21.722656 -6.378906 22.445312 -5.886719 23.128906 -5.089844 C 24.265625 -3.835938 23.242188 -1.632812 21.191406 -1.632812 C 17.660156 -1.632812 16.710938 -6.910156 12.761719 -7.898438 C 17.507812 -8.316406 22.40625 -10.59375 22.40625 -15.914062 C 22.40625 -21.152344 17.546875 -23.851562 12.113281 -23.851562 L 1.101562 -23.851562 C 0.683594 -23.851562 0.683594 -23.28125 1.0625 -23.203125 C 2.316406 -23.015625 3.457031 -23.316406 3.457031 -21.304688 L 3.457031 -2.507812 C 3.457031 -0.492188 2.316406 -0.796875 1.0625 -0.609375 C 0.683594 -0.53125 0.683594 0.0390625 1.101562 0.0390625 L 8.621094 0.0390625 C 9 0.0390625 9 -0.53125 8.660156 -0.609375 C 7.367188 -0.796875 6.265625 -0.492188 6.265625 -2.507812 L 6.265625 -21.382812 C 6.265625 -22.710938 7.0625 -22.976562 8.011719 -22.976562 L 7.898438 -23.015625 C 8.128906 -23.015625 8.429688 -23.015625 9.152344 -23.015625 C 15.34375 -23.015625 19.179688 -20.734375 19.179688 -15.875 C 19.179688 -11.011719 14.773438 -8.46875 9.152344 -8.46875 C 8.542969 -8.46875 8.8125 -8.507812 8.242188 -8.582031 C 7.59375 -8.660156 7.59375 -7.785156 8.277344 -7.824219 C 13.179688 -7.632812 14.847656 0.339844 19.9375 0.339844 C 23.242188 0.339844 24.496094 -2.316406 24.535156 -4.976562 C 24.570312 -6.113281 24.609375 -8.394531 22.9375 -8.394531 Z M 22.9375 -8.394531 "/></g></g></g><g fill="#ffffff" fill-opacity="1"><g transform="translate(309.512605, 66.314932)"><g><path d="M 20.242188 -4.367188 C 19.671875 -1.898438 19.140625 -1.023438 15.191406 -1.023438 L 7.632812 -1.023438 C 6.835938 -1.101562 6.226562 -1.480469 6.226562 -2.621094 L 6.226562 -11.128906 L 13.785156 -11.128906 C 16.140625 -11.128906 16.671875 -9.910156 16.746094 -8.734375 C 16.785156 -8.355469 17.394531 -8.394531 17.394531 -8.773438 L 17.394531 -14.316406 C 17.394531 -14.734375 16.785156 -14.734375 16.746094 -14.355469 C 16.671875 -13.214844 16.140625 -11.960938 13.785156 -11.960938 L 6.226562 -11.960938 L 6.226562 -21.53125 C 6.226562 -22.863281 6.988281 -23.128906 7.9375 -23.128906 L 13.898438 -23.128906 C 17.847656 -23.128906 18.796875 -22.253906 19.367188 -19.785156 C 19.445312 -19.445312 20.050781 -19.519531 20.050781 -19.824219 L 19.824219 -23.8125 C 19.824219 -23.925781 19.710938 -24 19.558594 -24 L 1.101562 -24 C 0.683594 -24 0.683594 -23.433594 1.0625 -23.355469 C 2.316406 -23.128906 3.417969 -23.46875 3.417969 -21.457031 L 3.417969 -2.695312 C 3.417969 -0.722656 2.316406 -1.023438 1.0625 -0.796875 C 0.683594 -0.757812 0.683594 -0.191406 1.101562 -0.191406 L 20.433594 -0.191406 C 20.546875 -0.191406 20.699219 -0.226562 20.699219 -0.378906 L 20.886719 -4.328125 C 20.886719 -4.671875 20.316406 -4.710938 20.242188 -4.367188 Z M 20.242188 -4.367188 "/></g></g></g><g fill="#ffffff" fill-opacity="1"><g transform="translate(331.154347, 66.314932)"><g><path d="M 11.277344 -24 L 1.101562 -24 C 0.683594 -24 0.683594 -23.433594 1.0625 -23.355469 C 2.316406 -23.128906 3.417969 -23.46875 3.417969 -21.457031 C 3.417969 -16.445312 3.417969 -7.710938 3.417969 -2.695312 C 3.417969 -0.722656 2.316406 -1.023438 1.0625 -0.796875 C 0.683594 -0.757812 0.683594 -0.191406 1.101562 -0.191406 L 11.277344 -0.191406 C 29.851562 -0.191406 29.886719 -24 11.277344 -24 Z M 10.632812 -0.988281 L 7.976562 -0.988281 C 7.027344 -0.988281 6.226562 -1.292969 6.226562 -2.621094 L 6.226562 -21.53125 C 6.226562 -22.863281 6.988281 -23.128906 7.9375 -23.128906 L 10.632812 -23.128906 C 26.203125 -23.128906 26.433594 -0.988281 10.632812 -0.988281 Z M 10.632812 -0.988281 "/></g></g></g></svg>