<svg xmlns="http://www.w3.org/2000/svg" xmlns:xlink="http://www.w3.org/1999/xlink" width="500" zoomAndPan="magnify" viewBox="0 0 375 374.999991" height="500" preserveAspectRatio="xMidYMid meet" version="1.0"><defs><clipPath id="4d174e5cd2"><path d="M 3.167969 61.820312 L 372 61.820312 L 372 313.070312 L 3.167969 313.070312 Z M 3.167969 61.820312 " clip-rule="nonzero"/></clipPath></defs><g clip-path="url(#4d174e5cd2)"><path fill="#ffffff" d="M 287.15625 279.933594 L 287.15625 156.613281 L 283.25 155.285156 L 283.25 278.972656 C 280.597656 278.308594 277.941406 277.71875 275.214844 277.128906 L 275.214844 152.484375 L 271.308594 151.15625 L 271.308594 276.320312 C 268.65625 275.730469 266 275.214844 263.273438 274.699219 L 263.273438 148.355469 L 259.367188 147.03125 L 259.367188 274.035156 C 255.976562 273.445312 252.585938 272.855469 249.195312 272.339844 L 249.195312 119.683594 L 220.300781 140.101562 L 220.300781 269.023438 C 216.171875 268.726562 211.972656 268.433594 207.769531 268.210938 L 207.769531 106.488281 L 203.863281 105.164062 L 203.863281 268.0625 C 201.210938 267.992188 198.554688 267.917969 195.828125 267.84375 L 195.828125 102.433594 L 191.921875 101.109375 L 191.921875 267.84375 C 190.375 267.84375 188.828125 267.84375 187.277344 267.84375 C 180.644531 267.84375 174.085938 267.992188 167.523438 268.285156 L 167.523438 61.820312 L 132.363281 88.503906 L 132.363281 153.960938 L 147.402344 160.59375 L 146.664062 269.6875 C 144.378906 269.90625 142.019531 270.128906 139.734375 270.421875 L 139.734375 183.960938 L 135.828125 182.410156 L 135.828125 270.863281 C 133.175781 271.234375 130.445312 271.527344 127.792969 271.972656 L 127.792969 179.242188 L 123.886719 177.695312 L 123.886719 272.558594 C 121.234375 273.003906 118.503906 273.445312 115.851562 273.886719 L 115.851562 174.449219 L 111.945312 172.902344 L 111.945312 274.550781 C 108.847656 275.140625 105.753906 275.730469 102.730469 276.394531 L 102.730469 143.714844 L 72.214844 165.238281 L 72.214844 284.132812 C 47.59375 291.578125 24.230469 301.382812 3.222656 313.175781 C 57.546875 295.410156 120.421875 285.238281 187.5 285.238281 C 254.578125 285.238281 317.453125 295.410156 371.777344 313.175781 C 346.566406 299.023438 318.042969 287.671875 287.15625 279.933594 Z M 287.15625 279.933594 " fill-opacity="1" fill-rule="nonzero"/></g><path fill="#ffffff" d="M 184.109375 98.308594 L 180.277344 96.980469 L 180.277344 267.769531 L 184.109375 267.769531 Z M 184.109375 98.308594 " fill-opacity="1" fill-rule="nonzero"/></svg>