<svg xmlns="http://www.w3.org/2000/svg" xmlns:xlink="http://www.w3.org/1999/xlink" width="500" zoomAndPan="magnify" viewBox="0 0 375 374.999991" height="500" preserveAspectRatio="xMidYMid meet" version="1.0"><defs><clipPath id="f057a4d144"><path d="M 12.148438 51.429688 L 364 51.429688 L 364 324 L 12.148438 324 Z M 12.148438 51.429688 " clip-rule="nonzero"/></clipPath></defs><g clip-path="url(#f057a4d144)"><path fill="#f4f7ff" d="M 180.949219 283.160156 Z M 109.375 323.394531 L 124.1875 272.859375 L 134.550781 259.109375 L 138.492188 261.066406 L 133.554688 277.265625 L 136.53125 278.734375 L 148.367188 265.984375 L 151.816406 267.941406 L 145.40625 285.609375 L 109.375 322.90625 Z M 159.710938 292.976562 L 180.441406 283.160156 C 187.359375 287.078125 195.746094 289.546875 204.132812 289.546875 C 215.984375 289.546875 226.839844 285.121094 235.226562 278.246094 C 249.042969 290.035156 266.8125 297.382812 286.074219 297.382812 C 328.515625 297.382812 363.058594 263.042969 363.058594 220.835938 C 363.058594 179.113281 329.496094 145.246094 288.035156 144.269531 C 289.03125 138.882812 290.011719 133.476562 290.011719 128.089844 C 290.011719 85.878906 255.46875 51.523438 213.027344 51.523438 C 176.503906 51.523438 145.898438 76.554688 138 110.421875 C 129.613281 103.054688 118.269531 98.140625 105.925781 98.140625 C 79.277344 98.140625 57.546875 119.742188 57.546875 146.246094 C 57.546875 148.695312 57.546875 150.652344 58.054688 153.101562 C 30.898438 160.957031 11.167969 185.5 11.167969 214.9375 C 11.167969 250.273438 40.285156 279.226562 75.808594 279.226562 L 116.289062 279.226562 L 108.882812 323.394531 L 149.855469 289.058594 L 153.304688 279.226562 L 154.285156 279.226562 Z M 143.429688 205.125 C 157.75 171.75 176.503906 142.308594 217.964844 133.964844 C 229.800781 172.238281 217.457031 204.636719 192.296875 234.078125 C 195.746094 240.949219 198.703125 248.316406 197.722656 255.191406 C 196.234375 264.515625 189.335938 268.921875 182.421875 274.816406 L 176.011719 280.222656 L 159.710938 293.464844 L 159.710938 261.066406 L 151.816406 265.984375 L 137.019531 257.148438 L 137.019531 247.335938 L 107.902344 264.515625 L 113.332031 230.160156 C 114.800781 220.835938 115.292969 215.917969 124.1875 210.53125 C 130.59375 206.59375 137.511719 206.105469 144.425781 205.617188 Z M 143.429688 205.125 " fill-opacity="1" fill-rule="evenodd"/></g><path fill="#ffde59" d="M 214.007812 142.308594 L 208.578125 151.144531 C 214.988281 172.746094 207.597656 197.761719 190.808594 225.242188 C 211.046875 200.226562 221.414062 173.726562 213.515625 141.820312 Z M 214.007812 142.308594 " fill-opacity="1" fill-rule="evenodd"/></svg>